<?xml version="1.0" encoding="UTF-8" standalone="no"?>
<!-- Created with Inkscape (http://www.inkscape.org/) -->

<svg
   xmlns:dc="http://purl.org/dc/elements/1.1/"
   xmlns:cc="http://creativecommons.org/ns#"
   xmlns:rdf="http://www.w3.org/1999/02/22-rdf-syntax-ns#"
   xmlns:svg="http://www.w3.org/2000/svg"
   xmlns="http://www.w3.org/2000/svg"
   xmlns:sodipodi="http://sodipodi.sourceforge.net/DTD/sodipodi-0.dtd"
   xmlns:inkscape="http://www.inkscape.org/namespaces/inkscape"
   width="480"
   height="640"
   id="svg2393"
   sodipodi:version="0.32"
   inkscape:version="0.48.3.1 r9886"
   version="1.0"
   sodipodi:docname="credits.svg"
   inkscape:output_extension="org.inkscape.output.svg.inkscape"
   inkscape:export-filename="/home/johann/Workspace/apps/tomatoes/res/img/credits.png"
   inkscape:export-xdpi="90"
   inkscape:export-ydpi="90">
  <defs
     id="defs2395">
    <inkscape:perspective
       sodipodi:type="inkscape:persp3d"
       inkscape:vp_x="0 : 240 : 1"
       inkscape:vp_y="0 : 1000 : 0"
       inkscape:vp_z="640 : 240 : 1"
       inkscape:persp3d-origin="320 : 160 : 1"
       id="perspective2401" />
    <inkscape:perspective
       id="perspective2600"
       inkscape:persp3d-origin="0.5 : 0.33333333 : 1"
       inkscape:vp_z="1 : 0.5 : 1"
       inkscape:vp_y="0 : 1000 : 0"
       inkscape:vp_x="0 : 0.5 : 1"
       sodipodi:type="inkscape:persp3d" />
    <inkscape:perspective
       id="perspective6048"
       inkscape:persp3d-origin="0.5 : 0.33333333 : 1"
       inkscape:vp_z="1 : 0.5 : 1"
       inkscape:vp_y="0 : 1000 : 0"
       inkscape:vp_x="0 : 0.5 : 1"
       sodipodi:type="inkscape:persp3d" />
  </defs>
  <sodipodi:namedview
     id="base"
     pagecolor="#ffffff"
     bordercolor="#666666"
     borderopacity="1.0"
     inkscape:pageopacity="0.0"
     inkscape:pageshadow="2"
     inkscape:zoom="1.1760749"
     inkscape:cx="108.24084"
     inkscape:cy="300.10088"
     inkscape:current-layer="layer1"
     inkscape:document-units="px"
     showgrid="false"
     inkscape:window-width="1087"
     inkscape:window-height="912"
     inkscape:window-x="120"
     inkscape:window-y="38"
     inkscape:window-maximized="0" />
  <metadata
     id="metadata2398">
    <rdf:RDF>
      <cc:Work
         rdf:about="">
        <dc:format>image/svg+xml</dc:format>
        <dc:type
           rdf:resource="http://purl.org/dc/dcmitype/StillImage" />
        <dc:title></dc:title>
      </cc:Work>
    </rdf:RDF>
  </metadata>
  <g
     id="layer1"
     inkscape:label="Layer 1"
     inkscape:groupmode="layer">
    <rect
       style="opacity:1;fill:#202020;fill-opacity:1;fill-rule:nonzero;stroke:none;stroke-width:1px;stroke-linecap:butt;stroke-linejoin:miter;marker:none;marker-start:none;marker-mid:none;marker-end:none;stroke-miterlimit:4;stroke-dasharray:none;stroke-dashoffset:0;stroke-opacity:1;visibility:visible;display:inline;overflow:visible;enable-background:accumulate"
       id="rect2403"
       width="480"
       height="640"
       x="0"
       y="0" />
    <text
       xml:space="preserve"
       style="font-size:21.69905853px;font-style:normal;font-variant:normal;font-weight:normal;font-stretch:normal;fill:#ffffff;fill-opacity:1;stroke:none;font-family:Arial Black;-inkscape-font-specification:Arial Black"
       x="21.943262"
       y="45.298374"
       id="text2405"><tspan
         sodipodi:role="line"
         id="tspan2407"
         x="21.943262"
         y="45.298374">Programming:</tspan><tspan
         sodipodi:role="line"
         x="21.943262"
         y="72.422195"
         id="tspan2409">  . Johann C</tspan><tspan
         sodipodi:role="line"
         x="21.943262"
         y="99.546021"
         id="tspan2411" /><tspan
         sodipodi:role="line"
         x="21.943262"
         y="126.66985"
         id="tspan2413">Graphism:</tspan><tspan
         sodipodi:role="line"
         x="21.943262"
         y="153.79367"
         id="tspan2415">  . Johann C</tspan><tspan
         sodipodi:role="line"
         x="21.943262"
         y="180.9175"
         id="tspan3094">  . TODO</tspan><tspan
         sodipodi:role="line"
         x="21.943262"
         y="208.04132"
         id="tspan2417" /><tspan
         sodipodi:role="line"
         x="21.943262"
         y="235.16513"
         id="tspan2419">Music:</tspan><tspan
         sodipodi:role="line"
         x="21.943262"
         y="262.28897"
         id="tspan3102">  . TODO</tspan></text>
    <g
       id="g3571"
       transform="translate(0,-9.0619656)">
      <path
         id="rect3441"
         d="M 105.84375,560.25 C 92.452766,560.25 81.59375,571.10904 81.59375,584.5 L 81.59375,605.15625 C 81.59375,618.54723 92.452767,629.40626 105.84375,629.40625 L 449.1875,629.40625 C 462.57848,629.40625 473.43748,618.54722 473.4375,605.15625 L 473.4375,584.5 C 473.4375,571.10902 462.57847,560.25 449.1875,560.25 L 105.84375,560.25 z M 152.59375,564.84375 L 401.96875,564.84375 L 401.96875,569.53125 C 401.55522,569.09017 401.10006,568.78307 400.5625,568.5625 C 400.03181,568.34197 399.43598,568.21877 398.78125,568.21875 C 397.43731,568.21876 396.31278,568.69138 395.4375,569.65625 C 394.56911,570.62114 394.15624,572.0243 394.15625,573.84375 C 394.15625,575.47026 394.52681,576.86281 395.3125,578 C 396.10508,579.13718 397.25442,579.6875 398.75,579.6875 C 399.49433,579.6875 400.17476,579.53576 400.78125,579.21875 C 401.23611,578.97753 401.72987,578.50168 402.28125,577.8125 L 402.28125,579.4375 L 406.21875,579.4375 L 406.21875,564.84375 L 415.90625,564.84375 L 415.90625,579.4375 L 419.84375,579.4375 L 419.84375,577.8125 C 420.38821,578.49481 420.88197,578.97062 421.34375,579.21875 C 421.95713,579.53578 422.63754,579.6875 423.375,579.6875 C 424.23649,579.6875 425.01576,579.4792 425.71875,579.03125 C 426.42861,578.57638 427.00649,577.87848 427.40625,576.96875 C 427.80597,576.05212 428,575.0117 428,573.8125 C 427.99999,572.0137 427.56278,570.61424 426.6875,569.65625 C 425.81221,568.69138 424.71204,568.21877 423.375,568.21875 C 422.72715,568.21876 422.13133,568.34198 421.59375,568.5625 C 421.06306,568.78305 420.57666,569.0902 420.15625,569.53125 L 420.15625,564.84375 L 449.1875,564.84375 C 460.10964,564.84375 468.84375,573.57785 468.84375,584.5 L 468.84375,605.15625 C 468.84374,616.07838 460.10965,624.78125 449.1875,624.78125 L 441.625,624.78125 L 441.625,616.625 L 429.03125,616.625 L 429.03125,609.3125 L 440.375,609.3125 L 440.375,601.78125 L 429.03125,601.78125 L 429.03125,595.90625 L 441.28125,595.90625 L 441.28125,588 L 421.71875,588 L 421.71875,624.78125 L 418.375,624.78125 L 418.375,615.875 L 406.96875,615.875 L 406.96875,588 L 399.6875,588 L 399.6875,624.78125 L 396.3125,624.78125 L 396.3125,615.875 L 384.9375,615.875 L 384.9375,588 L 377.625,588 L 377.625,624.78125 L 372.40625,624.78125 L 372.40625,588 L 365.09375,588 L 365.09375,624.78125 L 353.53125,624.78125 C 353.79552,624.6627 354.0655,624.5498 354.3125,624.40625 C 355.33332,623.81742 356.2946,622.7906 357.21875,621.34375 C 358.1536,619.88009 358.82015,618.18475 359.25,616.25 C 359.69055,614.29846 359.93748,612.2496 359.9375,610.0625 L 359.9375,588 L 352.625,588 L 352.625,610.59375 C 352.62498,612.64626 352.28245,614.21655 351.5625,615.34375 C 350.85327,616.45413 349.851,617.03126 348.59375,617.03125 C 347.32574,617.03126 346.34497,616.43971 345.625,615.3125 C 344.91577,614.1685 344.56249,612.61259 344.5625,610.59375 L 344.5625,588 L 337.28125,588 L 337.28125,610.0625 C 337.28125,611.87948 337.51743,613.95719 337.96875,616.3125 C 338.24814,617.77617 338.74779,619.18295 339.5,620.5625 C 340.26294,621.94205 341.11785,623.0242 342.03125,623.78125 C 342.5365,624.19073 343.10993,624.52106 343.75,624.78125 L 325.5625,624.78125 C 326.39955,624.41418 327.17641,623.92311 327.875,623.3125 C 329.63727,621.76472 330.98209,619.63411 331.90625,616.875 C 332.8411,614.09909 333.28122,610.54247 333.28125,606.21875 C 333.28122,600.26317 332.22139,595.64123 330.09375,592.34375 C 327.96608,589.02951 324.93291,587.37506 321,587.375 C 317.16377,587.37504 314.1804,589.04156 312.03125,592.40625 C 309.88211,595.77103 308.81249,600.49153 308.8125,606.53125 C 308.8125,610.85496 309.35219,614.43562 310.4375,617.3125 C 311.52281,620.18936 312.94668,622.2959 314.6875,623.625 C 315.30726,624.09528 315.98463,624.47738 316.71875,624.78125 L 304.84375,624.78125 L 304.84375,588 L 297.5,588 L 297.5,600.9375 L 289.53125,600.9375 L 289.53125,588 L 282.21875,588 L 282.21875,624.78125 L 272.46875,624.78125 C 272.91716,624.58272 273.35553,624.36284 273.75,624.09375 C 275.25438,623.05068 276.41182,621.502 277.25,619.5 C 278.08814,617.49798 278.49996,615.3409 278.5,612.96875 C 278.49998,610.94992 278.19648,609.10067 277.5625,607.46875 C 276.93923,605.83687 275.91743,604.46853 274.53125,603.375 C 273.15578,602.26466 270.87897,601.17048 267.6875,600.09375 C 266.398,599.67318 265.59385,599.23791 265.25,598.75 C 264.89538,598.27896 264.71875,597.7451 264.71875,597.15625 C 264.71874,596.34874 264.91392,595.68019 265.34375,595.125 C 265.77357,594.55302 266.43232,594.25003 267.28125,594.25 C 268.31283,594.25003 269.10721,594.61794 269.6875,595.375 C 270.2785,596.1321 270.66107,597.36572 270.84375,599.03125 L 277.75,598.40625 C 277.4491,594.57047 276.49659,591.74968 274.90625,590 C 273.32661,588.23354 271.01952,587.37506 268,587.375 C 265.53922,587.37504 263.60593,587.86801 262.1875,588.84375 C 260.77981,589.80274 259.70921,591.11332 259,592.8125 C 258.30153,594.4949 257.96874,596.28643 257.96875,598.1875 C 257.96875,601.08121 258.6558,603.47633 260.03125,605.34375 C 261.39595,607.2112 263.67276,608.68532 266.875,609.8125 C 268.83071,610.48546 270.08769,611.21169 270.625,611.96875 C 271.16227,612.72583 271.40625,613.5723 271.40625,614.53125 C 271.40623,615.54068 271.13201,616.44485 270.5625,617.21875 C 270.00371,617.97583 269.19858,618.34378 268.15625,618.34375 C 266.7593,618.34376 265.68968,617.5911 264.9375,616.09375 C 264.47543,615.16845 264.18168,613.82899 264.03125,612.0625 L 257.0625,612.75 C 257.26667,616.48488 258.14013,619.57736 259.6875,622 C 260.49314,623.26133 261.64939,624.17663 263.125,624.78125 L 255.96875,624.78125 L 247.15625,588 L 239.1875,588 L 230.375,624.78125 L 229.34375,624.78125 L 229.34375,615.875 L 217.9375,615.875 L 217.9375,588 L 210.625,588 L 210.625,624.78125 L 194.09375,624.78125 L 194.09375,611.25 L 198.0625,611.25 C 201.00681,611.25001 203.1958,610.19671 204.625,608.09375 C 206.0649,605.9908 206.81247,603.07864 206.8125,599.34375 C 206.81248,595.70985 206.1342,592.90589 204.8125,590.9375 C 203.5015,588.96916 201.51842,588.00003 198.875,588 L 186.75,588 L 186.75,624.78125 L 177.0625,624.78125 C 177.51091,624.58272 177.91802,624.36284 178.3125,624.09375 C 179.81688,623.05068 181.00557,621.502 181.84375,619.5 C 182.68189,617.49798 183.09373,615.3409 183.09375,612.96875 C 183.09373,610.94992 182.75897,609.10067 182.125,607.46875 C 181.50173,605.83687 180.51118,604.46853 179.125,603.375 C 177.74953,602.26466 175.47271,601.17048 172.28125,600.09375 C 170.99175,599.67318 170.15636,599.23791 169.8125,598.75 C 169.45788,598.27896 169.28124,597.7451 169.28125,597.15625 C 169.28124,596.34874 169.50766,595.68019 169.9375,595.125 C 170.36732,594.55302 170.99483,594.25003 171.84375,594.25 C 172.87533,594.25003 173.70096,594.61794 174.28125,595.375 C 174.87225,596.1321 175.2548,597.36572 175.4375,599.03125 L 182.3125,598.40625 C 182.0116,594.57047 181.05909,591.74968 179.46875,590 C 177.88911,588.23354 175.61329,587.37506 172.59375,587.375 C 170.13297,587.37504 168.16843,587.86801 166.75,588.84375 C 165.34231,589.80274 164.30297,591.11332 163.59375,592.8125 C 162.89528,594.4949 162.53124,596.28643 162.53125,598.1875 C 162.53125,601.08121 163.2183,603.47633 164.59375,605.34375 C 165.95845,607.2112 168.23527,608.68532 171.4375,609.8125 C 173.39321,610.48546 174.65019,611.21169 175.1875,611.96875 C 175.72477,612.72583 175.99998,613.5723 176,614.53125 C 175.99998,615.54068 175.72576,616.44485 175.15625,617.21875 C 174.59746,617.97583 173.79232,618.34378 172.75,618.34375 C 171.35305,618.34376 170.28343,617.5911 169.53125,616.09375 C 169.06918,615.16845 168.74418,613.82899 168.59375,612.0625 L 161.65625,612.75 C 161.86042,616.48488 162.73387,619.57736 164.28125,622 C 165.08283,623.25497 166.22269,624.17638 167.6875,624.78125 L 152.59375,624.78125 L 152.59375,564.84375 z M 125.03125,567 C 126.27749,566.86567 126.7133,567.2971 127.03125,567.5 C 127.36011,567.70986 127.56267,567.87417 127.75,568.0625 C 128.12466,568.43917 128.40264,568.86209 128.6875,569.34375 C 129.25723,570.30708 129.77235,571.61492 129.65625,573.25 C 129.61194,573.85708 129.31211,574.51849 129.1875,575.15625 C 130.51656,575.26685 131.4529,575.78405 132.0625,576.125 C 132.88977,576.57369 133.67207,577.06838 134.15625,578.25 C 134.24884,578.3065 134.34452,578.34712 134.4375,578.40625 C 136.17294,578.57865 137.69108,579.021 138.6875,579.3125 C 138.98148,579.39851 139.00571,579.39386 139.1875,579.4375 C 140.12778,579.09082 141.17942,579.25753 141.96875,579.875 C 142.75809,580.49247 143.17261,581.47266 143.0625,582.46875 C 142.9545,583.51498 141.9799,584.6033 141,585.1875 C 143.42145,588.93257 144.84306,593.39935 143.71875,598.1875 C 142.56662,603.1157 138.61405,607.45174 134.125,611.03125 C 129.63595,614.61076 124.67656,617.37201 120.03125,617.6875 C 115.31129,618.01442 110.02035,615.7487 105.3125,612.0625 C 100.60465,608.3763 96.533324,603.03071 95.875,596.53125 C 95.242556,590.34356 97.149696,584.87321 100.46875,581.125 C 103.53729,577.6597 107.9717,575.73096 112.46875,576.34375 C 113.37053,575.88937 114.27387,575.52155 115.1875,575.40625 C 115.46344,574.33731 115.8323,573.34841 116.21875,572.5 C 116.56259,571.74515 116.89313,571.10216 117.1875,570.59375 C 117.48187,570.08534 117.50192,569.96438 118.03125,569.34375 C 118.58535,568.69037 119.39332,568.30645 120.25,568.3125 C 121.06954,568.31827 121.83218,568.70308 122.375,569.3125 C 122.40314,569.3407 122.46875,569.375 122.46875,569.375 C 122.48084,569.3902 122.45146,569.38503 122.46875,569.40625 C 122.47917,569.40619 122.48958,569.40619 122.5,569.40625 C 122.52713,569.22893 122.45083,569.2016 122.53125,568.96875 C 122.824,568.12114 124.12177,567.09077 125.03125,567 z M 316.53125,568.21875 C 315.78691,568.21876 315.11339,568.39483 314.5,568.71875 C 314.04512,568.95998 313.54446,569.41148 313,570.09375 L 313,568.46875 L 309.0625,568.46875 L 309.0625,583.625 L 313.3125,583.625 L 313.3125,578.375 C 313.73291,578.8092 314.18805,579.15446 314.71875,579.375 C 315.25632,579.59554 315.85213,579.6875 316.5,579.6875 C 317.83704,579.6875 318.93721,579.20796 319.8125,578.25 C 320.68777,577.28512 321.15623,575.88886 321.15625,574.0625 C 321.15624,572.40843 320.74386,571.02963 319.9375,569.90625 C 319.13802,568.78287 317.99924,568.21877 316.53125,568.21875 z M 328.9375,568.21875 C 327.01463,568.21876 325.47402,568.75481 324.34375,569.84375 C 323.21346,570.9258 322.65624,572.32524 322.65625,574 C 322.65625,575.79881 323.31921,577.23414 324.65625,578.34375 C 325.74518,579.23971 327.17314,579.6875 328.9375,579.6875 C 330.91549,579.6875 332.47723,579.16891 333.59375,578.09375 C 334.71713,577.01171 335.28123,575.62607 335.28125,573.9375 C 335.28124,572.43505 334.80908,571.15191 333.90625,570.125 C 332.78285,568.84999 331.13603,568.21877 328.9375,568.21875 z M 362.34375,568.21875 C 360.4071,568.21876 358.88396,568.75116 357.78125,569.8125 C 356.68542,570.87387 356.15624,572.25267 356.15625,573.96875 C 356.15625,575.17485 356.4243,576.22907 356.96875,577.125 C 357.52011,578.01407 358.19732,578.68022 359.03125,579.09375 C 359.86518,579.50038 361.01453,579.6875 362.46875,579.6875 C 364.14349,579.6875 365.41654,579.4443 366.3125,578.96875 C 367.20845,578.48631 367.99092,577.69648 368.625,576.59375 L 364.46875,576.21875 C 364.20685,576.54957 363.97742,576.77528 363.75,576.90625 C 363.37782,577.11301 362.976,577.21874 362.5625,577.21875 C 361.90775,577.21875 361.37538,576.97554 360.96875,576.5 C 360.67928,576.16919 360.51332,575.6754 360.4375,575 L 368.875,575 L 368.875,574.53125 C 368.87499,573.08394 368.63179,571.90284 368.15625,571 C 367.68069,570.09716 366.97222,569.41307 366.0625,568.9375 C 365.15275,568.46196 363.91511,568.21877 362.34375,568.21875 z M 377.46875,568.21875 C 376.87603,568.21876 376.37537,568.35993 375.96875,568.65625 C 375.56901,568.94572 375.1603,569.50246 374.78125,570.28125 L 374.78125,568.46875 L 370.84375,568.46875 L 370.84375,579.4375 L 375.09375,579.4375 L 375.09375,575.78125 C 375.09374,574.0238 375.31581,572.79723 375.75,572.15625 C 376.05324,571.70139 376.47989,571.50003 377.03125,571.5 C 377.32071,571.50001 377.69127,571.60573 378.1875,571.8125 L 379.5,568.8125 C 378.76255,568.42656 378.08904,568.21877 377.46875,568.21875 z M 386.21875,568.21875 C 384.2821,568.21876 382.75897,568.75116 381.65625,569.8125 C 380.56042,570.87387 380,572.25267 380,573.96875 C 380,575.17485 380.26802,576.22907 380.8125,577.125 C 381.36386,578.01407 382.07233,578.68022 382.90625,579.09375 C 383.74018,579.50038 384.88954,579.6875 386.34375,579.6875 C 388.01849,579.6875 389.29152,579.4443 390.1875,578.96875 C 391.08345,578.48631 391.83468,577.69648 392.46875,576.59375 L 388.34375,576.21875 C 388.08185,576.54957 387.82118,576.77528 387.59375,576.90625 C 387.22157,577.11301 386.85101,577.21874 386.4375,577.21875 C 385.78275,577.21875 385.25036,576.97554 384.84375,576.5 C 384.55428,576.16919 384.35705,575.6754 384.28125,575 L 392.71875,575 L 392.71875,574.53125 C 392.71874,573.08394 392.47552,571.90284 392,571 C 391.52444,570.09716 390.84722,569.41307 389.9375,568.9375 C 389.02775,568.46196 387.79012,568.21877 386.21875,568.21875 z M 335.71875,568.46875 L 339.78125,579.4375 L 343.53125,579.4375 L 345.6875,572.84375 L 347.90625,579.4375 L 351.65625,579.4375 L 355.6875,568.46875 L 351.65625,568.46875 L 349.875,575.375 L 347.5625,568.46875 L 343.78125,568.46875 L 341.5625,575.375 L 339.78125,568.46875 L 335.71875,568.46875 z M 428.8125,568.46875 L 433.40625,579.4375 C 433.19259,580.02332 432.93515,580.42879 432.625,580.65625 C 432.32175,580.88368 431.93371,581 431.4375,581 C 430.69316,581 430.01274,580.91175 429.40625,580.71875 L 429.75,583.65625 C 431.01812,583.82165 431.95601,583.90623 432.5625,583.90625 C 434.05806,583.90625 435.1757,583.5679 435.90625,582.90625 C 436.42314,582.43759 436.91002,581.55577 437.40625,580.21875 L 441.75,568.46875 L 437.625,568.46875 L 435.53125,575.78125 L 433.25,568.46875 L 428.8125,568.46875 z M 362.53125,570.71875 C 363.11017,570.71876 363.55474,570.89854 363.90625,571.25 C 364.26462,571.6015 364.51103,572.18676 364.59375,573 L 360.4375,573 C 360.50641,572.34527 360.65123,571.83083 360.90625,571.5 C 361.30598,570.96933 361.86271,570.71876 362.53125,570.71875 z M 386.375,570.71875 C 386.95392,570.71876 387.42974,570.89854 387.78125,571.25 C 388.13962,571.6015 388.35479,572.18676 388.4375,573 L 384.28125,573 C 384.35016,572.34527 384.52624,571.83083 384.78125,571.5 C 385.18098,570.96933 385.70647,570.71876 386.375,570.71875 z M 329,571.125 C 329.57892,571.12501 330.0759,571.34388 330.46875,571.8125 C 330.86158,572.27427 331.03124,572.9864 331.03125,573.9375 C 331.03124,574.95752 330.86158,575.69449 330.46875,576.15625 C 330.08279,576.61802 329.57525,576.84377 328.96875,576.84375 C 328.36914,576.84375 327.86847,576.62488 327.46875,576.15625 C 327.0759,575.6876 326.87499,574.94744 326.875,573.96875 C 326.875,573.00388 327.069,572.3124 327.46875,571.84375 C 327.86848,571.36821 328.38659,571.125 329,571.125 z M 315.15625,571.3125 C 315.65247,571.31251 316.06164,571.5171 316.40625,571.9375 C 316.75084,572.35103 316.93748,573.01721 316.9375,573.90625 C 316.93749,574.87113 316.76832,575.56215 316.4375,575.96875 C 316.10668,576.36849 315.70806,576.56252 315.21875,576.5625 C 314.66049,576.5625 314.17778,576.35793 313.8125,575.9375 C 313.44722,575.51709 313.28126,574.86838 313.28125,574 C 313.28124,573.0558 313.4541,572.35792 313.8125,571.9375 C 314.17088,571.5171 314.61866,571.31251 315.15625,571.3125 z M 400.09375,571.375 C 400.65199,571.37501 401.10348,571.57272 401.46875,572 C 401.83402,572.42042 402,573.07604 402,573.9375 C 401.99999,574.8886 401.82713,575.57957 401.46875,576 C 401.11036,576.42041 400.66257,576.62498 400.125,576.625 C 399.62188,576.625 399.2196,576.41352 398.875,576 C 398.53729,575.57959 398.34375,574.9272 398.34375,574.03125 C 398.34375,573.07327 398.51294,572.37539 398.84375,571.96875 C 399.17456,571.56213 399.60442,571.375 400.09375,571.375 z M 422.0625,571.375 C 422.53804,571.37501 422.95043,571.56214 423.28125,571.96875 C 423.61895,572.37538 423.78124,573.00661 423.78125,573.875 C 423.78124,574.86056 423.62585,575.57959 423.28125,576 C 422.94353,576.41352 422.50311,576.62498 422,576.625 C 421.45553,576.625 421.01464,576.42039 420.65625,576 C 420.30475,575.5727 420.12499,574.88173 420.125,573.9375 C 420.12499,573.07601 420.29786,572.42043 420.65625,572 C 421.02152,571.5727 421.49045,571.375 422.0625,571.375 z M 194.09375,595.53125 L 196.15625,595.53125 C 197.52094,595.53128 198.44318,595.91124 198.9375,596.71875 C 199.43179,597.52632 199.68748,598.52668 199.6875,599.6875 C 199.68748,600.88201 199.41326,601.85111 198.84375,602.625 C 198.27421,603.38209 197.28267,603.7813 195.875,603.78125 L 194.09375,603.78125 L 194.09375,595.53125 z M 321,596.03125 C 322.53662,596.03128 323.76433,596.82247 324.65625,598.4375 C 325.55887,600.03578 325.99999,602.58003 326,606.0625 C 325.99998,610.20115 325.5784,613.05802 324.71875,614.65625 C 323.85908,616.25451 322.63137,617.0625 321.0625,617.0625 C 319.5366,617.06251 318.32939,616.25693 317.4375,614.625 C 316.55634,612.99311 316.125,610.29735 316.125,606.5625 C 316.12499,602.79401 316.54558,600.10067 317.4375,598.46875 C 318.32938,596.83688 319.52781,596.03129 321,596.03125 z M 243.09375,597.59375 L 245.6875,610.875 L 240.5,610.875 L 243.09375,597.59375 z M 289.53125,610.03125 L 297.5,610.03125 L 297.5,624.78125 L 289.53125,624.78125 L 289.53125,610.03125 z M 238.90625,618.875 L 247.21875,618.875 L 248.34375,624.78125 L 237.78125,624.78125 L 238.90625,618.875 z"
         style="opacity:1;fill:#ffffff;fill-opacity:1;fill-rule:nonzero;stroke:none;stroke-width:4.5999999;stroke-linecap:butt;stroke-linejoin:miter;marker:none;marker-start:none;marker-mid:none;marker-end:none;stroke-miterlimit:4;stroke-dasharray:none;stroke-dashoffset:0;stroke-opacity:1;visibility:visible;display:inline;overflow:visible;enable-background:accumulate" />
      <g
         id="g3517">
        <path
           d="M 125.3034,569.86784 C 125.2034,569.87784 125.2234,570.05784 125.4234,570.45784 C 126.0334,571.67784 124.9434,575.21784 123.3934,578.26784 C 122.6334,578.39784 122.0634,578.55784 121.7034,578.61784 C 121.1534,578.27784 120.1134,578.10784 118.9234,578.04784 C 119.0934,575.36784 120.8034,571.73784 120.8034,571.73784 C 120.8034,571.73784 120.4234,571.47784 120.2034,571.20784 C 119.9134,571.54784 117.6734,575.17784 117.6734,578.04784 C 115.7834,578.11784 113.8134,578.48784 112.8934,579.23784 C 105.4934,577.50784 97.633399,585.37784 98.743399,596.23784 C 99.843399,607.09784 112.9034,615.30784 119.8334,614.82784 C 126.7534,614.35784 139.1634,604.91784 140.8934,597.51784 C 142.3234,591.42784 138.8634,585.44784 134.3334,581.86784 C 135.1134,581.93784 135.8634,582.00784 136.3034,582.07784 C 137.2634,582.23784 140.0134,583.69784 140.1734,582.14784 C 139.7434,583.14784 136.6934,581.25784 133.4534,581.17784 C 132.7534,580.67784 132.0334,580.26784 131.3034,579.89784 C 130.9334,579.70784 130.5834,579.54784 130.2434,579.39784 C 130.5734,579.28784 130.8334,579.20784 130.8334,579.20784 L 131.4934,579.61784 C 131.4934,579.61784 131.8534,579.28784 130.6734,578.64784 C 130.0834,578.31784 129.5134,578.01784 128.8634,577.98784 C 128.4234,577.96784 127.9534,578.10784 127.4234,578.42784 C 126.7234,578.25784 126.0834,578.17784 125.5234,578.14784 C 126.1634,576.39784 126.6734,574.38784 126.7734,573.01784 C 126.8934,571.32784 125.6034,569.82784 125.3034,569.86784 z"
           id="p3262"
           style="opacity:1;fill:#fc6131;fill-opacity:1;fill-rule:evenodd;stroke:none" />
        <path
           d="M 125.3034,569.86784 C 125.2034,569.87784 125.2234,570.05784 125.4234,570.45784 C 126.0334,571.67784 124.9434,575.21784 123.3934,578.26784 C 122.6334,578.39784 122.0634,578.55784 121.7034,578.61784 C 121.1534,578.27784 120.1134,578.10784 118.9234,578.04784 C 119.0934,575.36784 120.8034,571.73784 120.8034,571.73784 C 120.8034,571.73784 120.4234,571.47784 120.2034,571.20784 C 119.9134,571.54784 117.6734,575.17784 117.6734,578.04784 C 115.7834,578.11784 113.8134,578.48784 112.8934,579.23784 C 105.4934,577.50784 97.633399,585.37784 98.743399,596.23784 C 99.843399,607.09784 112.9034,615.30784 119.8334,614.82784 C 121.9634,614.68784 124.6034,613.66784 127.3034,612.14784 C 117.0734,595.91784 123.4734,585.89784 137.2434,584.70784 C 136.3534,583.64784 135.3834,582.68784 134.3334,581.86784 C 135.1134,581.93784 135.8634,582.00784 136.3034,582.07784 C 137.2634,582.23784 140.0134,583.69784 140.1734,582.14784 C 139.7434,583.14784 136.6934,581.25784 133.4534,581.17784 C 132.7534,580.67784 132.0334,580.26784 131.3034,579.89784 C 130.9334,579.70784 130.5834,579.54784 130.2434,579.39784 C 130.5734,579.28784 130.8334,579.20784 130.8334,579.20784 L 131.4934,579.61784 C 131.4934,579.61784 131.8534,579.28784 130.6734,578.64784 C 130.0834,578.31784 129.5134,578.01784 128.8634,577.98784 C 128.4234,577.96784 127.9534,578.10784 127.4234,578.42784 C 126.7234,578.25784 126.0834,578.17784 125.5234,578.14784 C 126.1634,576.39784 126.6734,574.38784 126.7734,573.01784 C 126.8934,571.32784 125.6034,569.82784 125.3034,569.86784 z"
           id="p3311"
           style="opacity:1;fill:#742b15;fill-opacity:0.22000002;fill-rule:evenodd;stroke:none;display:inline" />
        <path
           d="M 104.9234,580.95784 C 100.8834,583.77784 98.043399,589.41784 98.743399,596.23784 C 99.843399,607.09784 112.9034,615.30784 119.8334,614.82784 C 121.2534,614.73784 122.9034,614.23784 124.6434,613.48784 C 97.403399,606.75784 97.323399,592.68784 104.9234,580.95784 z"
           id="p3287"
           style="opacity:1;fill:#2c0303;fill-opacity:0.37000002;fill-rule:evenodd;stroke:none;display:inline" />
        <path
           d="M 125.3034,569.86784 C 125.2034,569.87784 125.2234,570.05784 125.4234,570.45784 C 126.0234,571.64784 124.9934,575.00784 123.5234,577.98784 C 124.2934,577.57784 125.1234,577.19784 125.9934,576.82784 C 126.4134,575.45784 126.6934,574.04784 126.7734,573.01784 C 126.8934,571.32784 125.6034,569.82784 125.3034,569.86784 z M 120.2034,571.20784 C 119.9134,571.54784 117.6734,575.17784 117.6734,578.04784 C 115.7834,578.11784 113.8134,578.48784 112.8934,579.23784 C 105.4934,577.50784 97.633399,585.37784 98.743399,596.23784 C 99.843399,607.09784 112.9034,615.30784 119.8334,614.82784 C 126.7534,614.35784 139.1634,604.91784 140.8934,597.51784 C 141.4334,595.20784 141.2734,592.89784 140.6134,590.73784 C 117.3334,616.77784 101.7934,590.20784 122.8034,578.39784 C 122.3934,578.47784 121.9434,578.57784 121.7034,578.61784 C 121.1534,578.27784 120.1134,578.10784 118.9234,578.04784 C 119.0934,575.36784 120.8034,571.73784 120.8034,571.73784 C 120.8034,571.73784 120.4234,571.47784 120.2034,571.20784 z"
           id="p3317"
           style="opacity:1;fill:#ef3200;fill-opacity:0.33000004;fill-rule:evenodd;stroke:none;display:inline" />
        <path
           d="M 117.6734,601.54784 C 115.3534,601.64784 114.1034,603.18784 114.9234,606.01784 C 116.0334,609.80784 117.5434,613.12784 120.3634,614.76784 C 123.3834,614.38784 127.2734,612.46784 130.8934,609.82784 C 126.2534,604.06784 120.9134,601.41784 117.6734,601.54784 z"
           id="p3290"
           style="opacity:1;fill:#b71a00;fill-opacity:0.22000002;fill-rule:evenodd;stroke:none;display:inline" />
        <path
           d="M 141.2034,594.26784 C 134.2934,602.55784 122.2934,611.43784 135.4234,605.98784 C 138.1634,603.24784 140.2534,600.24784 140.8934,597.51784 C 141.1534,596.42784 141.2434,595.33784 141.2034,594.26784 z"
           id="p3293"
           style="opacity:1;fill:#b2330c;fill-opacity:0.41000001;fill-rule:evenodd;stroke:none;display:inline" />
        <path
           d="M 103.0834,605.86784 C 107.7934,611.54784 115.1834,615.14784 119.8334,614.82784 C 121.0334,614.74784 122.4134,614.39784 123.8634,613.82784 C 114.8734,613.88784 109.4534,610.42784 103.0834,605.86784 z"
           id="p3296"
           style="opacity:1;fill:#f8b49f;fill-opacity:0.41000001;fill-rule:evenodd;stroke:none;display:inline" />
        <path
           d="M 110.8034,578.98784 C 104.0934,578.99784 97.743399,586.39784 98.743399,596.23784 C 99.453399,603.23784 105.1234,609.11784 110.9234,612.29784 C 102.3234,598.35784 105.6934,587.52784 111.3334,579.01784 C 111.1634,579.00784 110.9734,578.98784 110.8034,578.98784 z"
           id="p3320"
           style="opacity:1;fill:#9d210c;fill-opacity:0.18000004;fill-rule:evenodd;stroke:none;display:inline" />
        <path
           d="M 110.9534,584.07784 C 110.5934,584.09784 110.0134,584.19784 109.2034,584.39784 C 103.3234,587.04784 100.3234,589.78784 98.743399,592.48784 C 98.633399,593.68784 98.603399,594.93784 98.743399,596.23784 C 98.923399,598.04784 99.443399,599.76784 100.2034,601.39784 C 101.4434,600.94784 102.5634,599.88784 102.6434,598.54784 C 102.9934,592.84784 101.9534,591.05784 107.3034,587.48784 C 110.2534,585.51784 112.5334,584.01784 110.9534,584.07784 z"
           id="p3384"
           style="opacity:1;fill:#b23d28;fill-opacity:0.33000004;fill-rule:evenodd;stroke:none;display:inline" />
        <path
           d="M 101.1134,587.64784 C 100.6034,587.68784 100.0934,587.89784 99.643399,588.26784 C 98.823399,590.62784 98.443399,593.31784 98.743399,596.23784 C 99.693399,605.61784 109.5734,613.01784 116.7034,614.54784 C 111.7234,593.28784 109.5234,599.24784 106.2434,592.17784 C 104.8734,589.22784 102.8834,587.48784 101.1134,587.64784 z"
           id="p3329"
           style="opacity:1;fill:#9d210c;fill-opacity:0.18000004;fill-rule:evenodd;stroke:none;display:inline" />
        <path
           d="M 134.5834,606.76784 C 129.5034,607.74784 126.6234,608.95784 128.4534,611.45784 C 130.5934,610.13784 132.7034,608.52784 134.5834,606.76784 z"
           id="p3332"
           style="opacity:1;fill:#e9d9d6;fill-opacity:0.26000001;fill-rule:evenodd;stroke:none;display:inline" />
        <path
           d="M 101.2734,603.39784 C 105.6534,610.48784 114.5334,615.18784 119.8334,614.82784 C 122.5734,614.64784 126.1834,613.02784 129.6434,610.70784 C 115.4534,608.73784 110.4634,604.92784 101.2734,603.39784 z"
           id="p3368"
           style="opacity:1;fill:#c02105;fill-opacity:0.47000002;fill-rule:evenodd;stroke:none;display:inline" />
        <path
           d="M 115.2534,588.68784 C 115.5634,585.54784 111.0034,584.75784 108.1734,590.26784 C 105.3434,595.77784 107.2234,599.70784 108.0134,601.12784 C 109.1134,598.13784 112.5734,590.57784 115.2534,588.68784 z"
           id="p3371"
           style="opacity:1;fill:#fa8d3e;fill-opacity:0.31000001;fill-rule:evenodd;stroke:none;display:inline" />
        <path
           d="M 98.993399,590.45784 C 98.623399,592.24784 98.533399,594.18784 98.743399,596.23784 C 99.473399,603.44784 105.4734,609.47784 111.4534,612.57784 C 109.7334,606.11784 105.7034,597.98784 98.993399,590.45784 z"
           id="p3379"
           style="opacity:1;fill:#a51700;fill-opacity:0.37000002;fill-rule:evenodd;stroke:none" />
        <path
           d="M 114.6434,578.45784 C 113.9234,578.64784 113.3034,578.90784 112.8934,579.23784 C 106.2834,577.68784 99.323399,583.83784 98.703399,592.92784 C 103.2834,579.70784 109.0434,579.71784 112.8034,580.54784 C 116.7334,581.42784 118.9234,583.89784 118.9234,583.89784 C 118.9234,583.89784 117.0534,580.98784 114.6434,578.45784 z"
           id="p3390"
           style="opacity:1;fill:#d67c6a;fill-opacity:0.56999972;fill-rule:evenodd;stroke:none;display:inline" />
        <path
           d="M 121.5834,587.54784 C 118.2234,587.54784 116.1234,584.28784 117.2834,582.60784 C 116.2334,580.92784 115.8134,579.87784 115.8134,579.87784 C 115.8134,579.87784 118.4334,582.18784 119.2734,583.12784 C 120.1134,584.07784 126.6334,582.39784 125.3734,584.28784 C 124.1134,586.17784 123.4834,587.64784 121.5834,587.54784 z"
           id="p3335"
           style="opacity:1;fill:#a0a77d;fill-opacity:0.98000004;fill-rule:evenodd;stroke:none;display:inline" />
        <path
           d="M 115.8034,579.86784 C 115.8034,579.86784 116.2234,580.92784 117.2734,582.61784 C 116.8534,583.21784 116.8734,584.00784 117.2034,584.79784 C 117.4834,584.72784 117.6634,584.51784 117.7034,584.14784 C 117.8034,583.34784 117.7634,582.38784 117.4934,581.39784 C 116.6234,580.59784 115.8034,579.86784 115.8034,579.86784 z"
           id="p3498"
           style="opacity:1;fill:#d8e0a8;fill-opacity:0.61000001;fill-rule:evenodd;stroke:none" />
        <path
           d="M 117.7034,577.54784 C 117.6934,577.71784 117.6734,577.88784 117.6734,578.04784 C 117.3434,578.05784 117.0134,578.07784 116.6734,578.11784 C 116.7834,578.98784 116.9734,579.85784 117.3334,580.42784 C 118.3534,582.02784 119.0734,583.89784 118.4934,583.89784 C 117.9034,583.89784 115.1334,581.86784 111.0534,584.04784 C 106.9634,586.23784 107.8534,589.00784 109.0234,588.42784 C 111.0634,584.19784 115.4134,582.45784 119.2034,586.82784 C 120.2234,587.99784 123.7234,586.95784 124.4534,586.95784 C 125.1834,586.95784 126.8034,587.82784 126.8034,587.82784 L 127.8334,586.67784 C 127.8334,586.67784 124.6234,585.21784 123.0234,585.79784 C 121.4134,586.38784 129.2934,583.30784 130.8934,583.45784 C 132.5034,583.59784 135.2534,584.20784 137.1434,585.51784 C 135.2534,583.62784 129.4134,581.14784 125.3334,582.89784 C 126.6934,582.16784 128.9734,580.76784 131.0534,579.76784 C 130.7734,579.63784 130.5034,579.50784 130.2434,579.39784 C 130.5734,579.28784 130.8334,579.20784 130.8334,579.20784 L 131.4534,579.57784 C 131.4734,579.57784 131.5034,579.58784 131.5234,579.57784 C 131.5234,579.56784 131.5134,579.56784 131.5234,579.54784 C 131.5634,579.42784 131.5634,579.12784 130.6734,578.64784 C 130.0834,578.31784 129.5134,578.01784 128.8634,577.98784 C 128.8034,577.98784 128.7334,578.01784 128.6734,578.01784 L 120.6734,584.32784 L 118.4934,579.39784 L 117.7034,577.54784 z"
           id="p3393"
           style="opacity:1;fill:#61190b;fill-opacity:0.79000005;fill-rule:evenodd;stroke:none;display:inline" />
        <path
           d="M 125.3034,569.86784 C 125.2034,569.87784 125.2234,570.05784 125.4234,570.45784 C 125.9934,571.59784 125.0834,574.72784 123.7034,577.61784 C 123.2234,579.08784 122.3134,580.28784 121.8334,580.79784 C 120.7334,581.01784 120.3634,582.01784 120.3634,582.01784 C 120.3634,582.01784 119.8234,580.87784 119.3334,579.89784 C 119.0234,579.27784 118.8934,578.57784 119.0534,578.04784 C 119.0034,578.04784 118.9734,578.04784 118.9234,578.04784 C 119.0934,575.36784 120.8034,571.73784 120.8034,571.73784 C 120.8034,571.73784 120.4234,571.47784 120.2034,571.20784 C 119.9234,571.52784 117.8734,574.86784 117.7034,577.67784 C 117.9134,579.06784 118.2134,580.05784 118.3934,580.57784 C 118.8334,581.83784 118.7634,583.27784 118.4934,583.11784 C 114.6034,578.84784 111.7634,581.03784 110.1734,583.11784 C 108.5934,585.18784 109.5234,586.82784 110.0234,585.73784 C 110.5134,584.64784 111.5934,582.06784 114.7734,581.95784 C 117.9434,581.84784 117.2834,583.75784 118.2734,584.95784 C 119.2534,586.15784 119.3434,587.71784 120.9534,587.61784 C 123.0834,587.47784 125.8134,585.20784 127.7434,584.20784 C 128.6334,583.73784 128.9634,582.93784 129.9934,582.82784 C 130.5934,582.76784 130.9734,582.43784 131.0834,582.11784 C 132.9834,581.65784 134.6734,581.71784 136.1134,582.04784 C 136.1634,582.05784 136.2634,582.07784 136.3034,582.07784 C 137.2634,582.23784 140.0134,583.69784 140.1734,582.14784 C 139.7434,583.14784 136.6934,581.25784 133.4534,581.17784 C 133.3334,581.08784 133.2134,581.00784 133.0834,580.92784 C 132.0934,581.08784 131.0234,581.29784 131.0234,581.29784 C 131.0234,581.29784 130.9834,580.68784 130.4934,580.57784 C 130.5434,581.50784 130.1434,581.64784 130.1434,581.64784 L 129.9934,581.20784 C 129.9934,581.20784 129.5934,581.57784 129.2734,581.79784 C 128.9434,582.01784 127.8434,581.90784 127.2434,581.79784 C 128.2434,580.05784 129.8534,579.29784 131.1134,578.95784 C 130.9934,578.86784 130.8834,578.75784 130.6734,578.64784 C 130.0834,578.31784 129.5134,578.01784 128.8634,577.98784 C 128.4234,577.96784 127.9534,578.10784 127.4234,578.42784 C 127.4134,578.41784 127.4034,578.42784 127.3934,578.42784 C 126.4534,578.96784 125.6634,579.55784 125.2734,580.04784 C 123.9534,581.68784 124.2834,580.03784 125.0534,579.04784 C 125.1534,578.91784 125.3234,578.59784 125.5234,578.14784 C 126.1634,576.39784 126.6734,574.38784 126.7734,573.01784 C 126.8934,571.32784 125.6034,569.82784 125.3034,569.86784 z"
           id="p3278"
           style="opacity:1;fill:#879166;fill-opacity:1;fill-rule:evenodd;stroke:none" />
        <path
           d="M 110.8034,578.98784 C 104.0934,578.99784 97.743399,586.39784 98.743399,596.23784 C 99.843399,607.09784 112.9034,615.30784 119.8334,614.82784 C 126.1734,614.39784 137.1134,606.44784 140.2434,599.42784 C 138.2234,598.93784 134.9034,599.99784 133.3634,600.64784 C 130.3734,601.90784 129.0934,607.42784 127.6734,607.73784 C 126.2634,608.04784 124.0734,601.76784 120.7734,601.61784 C 117.4634,601.45784 114.4734,605.83784 112.5834,605.51784 C 110.6934,605.20784 112.5934,597.80784 111.1734,596.70784 C 109.7634,595.60784 108.4734,598.59784 106.2734,596.23784 C 104.0634,593.87784 106.2734,589.64784 105.6434,588.54784 C 105.0134,587.44784 102.8334,589.30784 102.3634,588.20784 C 101.9234,587.17784 101.6034,586.07784 111.9234,579.07784 C 111.5534,579.03784 111.1734,578.98784 110.8034,578.98784 z"
           id="p3404"
           style="opacity:1;fill:#c12302;fill-opacity:0.27000002;fill-rule:evenodd;stroke:none;display:inline" />
        <path
           d="M 107.3834,590.89784 C 105.8134,591.99784 104.8634,593.88784 104.7134,594.66784"
           id="p3410"
           style="opacity:1;fill:none;fill-rule:evenodd;stroke:#ef6f47;stroke-width:5;stroke-linecap:round;stroke-linejoin:miter;stroke-miterlimit:4;stroke-dasharray:none;stroke-opacity:0.31000001" />
        <path
           d="M 118.2534,592.36784 C 116.3934,593.81784 115.2034,596.86784 114.9434,598.58784"
           id="p3412"
           style="opacity:1;fill:none;fill-rule:evenodd;stroke:#ef6f47;stroke-width:5.5;stroke-linecap:round;stroke-linejoin:miter;stroke-miterlimit:4;stroke-dasharray:none;stroke-opacity:0.26000001" />
        <path
           d="M 128.1734,591.61784 C 128.2834,593.33784 128.2834,596.18784 127.9434,597.55784"
           id="p3414"
           style="opacity:1;fill:none;fill-rule:evenodd;stroke:#f4a063;stroke-width:4.5;stroke-linecap:round;stroke-linejoin:miter;stroke-miterlimit:4;stroke-dasharray:none;stroke-opacity:0.36000001" />
        <path
           d="M 133.4234,587.39784 C 137.1934,589.67784 137.6534,592.64784 137.6534,592.64784"
           id="p3424"
           style="opacity:1;fill:none;fill-rule:evenodd;stroke:#f9c199;stroke-width:3.70000005;stroke-linecap:round;stroke-linejoin:miter;stroke-miterlimit:4;stroke-dasharray:none;stroke-opacity:0.17000002" />
        <path
           d="M 131.5434,586.03784 C 133.6734,586.39784 136.7634,591.84784 137.3534,596.11784"
           id="p3446"
           style="opacity:1;fill:none;fill-rule:evenodd;stroke:#f9c199;stroke-width:5.09000015;stroke-linecap:round;stroke-linejoin:miter;stroke-miterlimit:4;stroke-dasharray:none;stroke-opacity:0.17000002" />
        <path
           d="M 118.5234,591.33784 C 117.4034,595.19784 118.2734,598.06784 118.2734,599.55784"
           id="p3448"
           style="opacity:1;fill:none;fill-rule:evenodd;stroke:#ffa15d;stroke-width:5.59000015;stroke-linecap:round;stroke-linejoin:miter;stroke-miterlimit:4;stroke-dasharray:none;stroke-opacity:0.18000004" />
        <path
           d="M 127.0234,582.11784 C 125.7034,582.32784 122.0934,585.28784 120.9234,586.04784 C 119.8834,586.72784 119.8934,586.73784 119.9534,587.39784 C 120.2134,587.55784 120.5334,587.63784 120.9534,587.61784 C 121.9534,587.54784 123.0934,587.01784 124.2034,586.36784 C 124.6334,585.74784 125.0334,585.20784 125.5534,584.98784 C 125.8634,584.85784 127.2634,584.20784 128.5534,583.61784 C 128.9634,583.24784 129.3434,582.89784 129.9934,582.82784 C 130.2634,582.80784 130.4634,582.72784 130.6434,582.61784 C 129.5534,582.67784 128.0334,582.25784 127.2434,582.11784 C 127.1734,582.09784 127.1034,582.09784 127.0234,582.11784 z"
           id="p3450"
           style="opacity:1;fill:#3d2400;fill-opacity:0.56999972;fill-rule:evenodd;stroke:none;display:inline" />
        <path
           d="M 130.4934,580.57784 C 130.5434,581.50784 130.1434,581.64784 130.1434,581.64784 L 129.9934,581.20784 C 129.9934,581.20784 129.5934,581.57784 129.2734,581.79784 C 129.0534,581.94784 128.5134,581.93784 127.9934,581.89784 C 128.0134,582.03784 128.0934,582.16784 128.5534,582.26784 C 129.0334,582.36784 130.2234,582.89784 130.8034,582.51784 C 130.8134,582.50784 130.8234,582.49784 130.8334,582.48784 C 130.8734,582.45784 130.9234,582.40784 130.9534,582.36784 C 130.9634,582.34784 130.9834,582.34784 130.9934,582.32784 C 131.0334,582.26784 131.0534,582.19784 131.0834,582.11784 C 131.1434,581.90784 131.1434,581.64784 131.0834,581.29784 C 131.0834,581.29784 131.0234,581.29784 131.0234,581.29784 C 131.0234,581.29784 130.9834,580.68784 130.4934,580.57784 z"
           id="p3483"
           style="opacity:1;fill:#1f2c10;fill-opacity:0.61000001;fill-rule:evenodd;stroke:none" />
        <path
           d="M 123.1634,584.25784 C 125.9134,582.32784 126.9734,581.87784 128.3434,582.19784 C 129.7234,582.50784 130.4834,582.66784 130.8734,582.35784"
           id="p3453"
           style="opacity:1;fill:none;fill-rule:evenodd;stroke:#a1ae6a;stroke-width:0.30000001;stroke-linecap:round;stroke-linejoin:miter;stroke-miterlimit:4;stroke-dasharray:none;stroke-opacity:1;display:inline" />
        <path
           d="M 119.0034,584.20784 C 119.3434,585.03784 119.2334,585.53784 119.5634,585.59784 C 119.8934,585.65784 120.7234,585.92784 120.7234,585.92784 L 122.9534,584.26784 L 123.2234,582.81784 L 120.6734,583.15784 C 120.6734,583.15784 120.5634,584.31784 120.3434,584.31784 C 120.1134,584.31784 120.0034,584.20784 119.7834,583.70784 C 119.4534,583.87784 119.0034,584.15784 119.0034,584.20784 z"
           id="p3461"
           style="opacity:1;fill:#1f401d;fill-opacity:0.7;fill-rule:evenodd;stroke:none;display:inline" />
        <path
           d="M 124.2234,578.91784 C 123.7634,579.83784 123.2634,580.94784 122.9534,581.36784"
           id="p3491"
           style="opacity:1;fill:none;fill-rule:evenodd;stroke:#d7e9ce;stroke-width:0.69;stroke-linecap:round;stroke-linejoin:miter;stroke-miterlimit:4;stroke-dasharray:none;stroke-opacity:0.31000001;display:inline" />
        <path
           d="M 125.1734,575.34784 C 124.2534,578.22784 123.5634,579.75784 122.6134,581.32784"
           id="p3488"
           style="opacity:1;fill:none;fill-rule:evenodd;stroke:#56634c;stroke-width:0.30000001;stroke-linecap:round;stroke-linejoin:miter;stroke-miterlimit:4;stroke-dasharray:none;stroke-opacity:0.54000005;display:inline" />
        <path
           d="M 120.3434,581.70784 C 119.9534,583.48784 121.3434,583.92784 121.7234,583.92784 C 122.1134,583.92784 123.4534,584.42784 123.8334,582.59784 C 124.2234,580.76784 121.8434,580.20784 120.3434,581.70784 z"
           id="p3464"
           style="opacity:1;fill:#b5c55f;fill-opacity:1;fill-rule:evenodd;stroke:none;display:inline" />
        <path
           d="M 123.3434,582.41784 C 123.3434,582.93784 122.8334,583.36784 122.2134,583.36784 C 121.5934,583.36784 121.0934,582.93784 121.0934,582.41784 C 121.0934,581.88784 121.5934,581.46784 122.2134,581.46784 C 122.8334,581.46784 123.3434,581.88784 123.3434,582.41784 L 123.3434,582.41784 z"
           id="p3477"
           style="opacity:1;fill:#f1efb5;fill-opacity:0.41000001;fill-rule:evenodd;stroke:none;marker:none;visibility:visible;display:inline;overflow:visible;enable-background:accumulate" />
        <path
           d="M 122.2034,580.86784 C 122.1134,580.86784 122.0234,580.87784 121.9234,580.89784 C 122.0334,581.97784 122.3634,582.74784 123.6434,583.17784 C 123.7234,583.01784 123.7834,582.83784 123.8334,582.61784 C 124.0734,581.46784 123.2434,580.81784 122.2034,580.86784 z"
           id="p3472"
           style="opacity:1;fill:#8f9e28;fill-opacity:0.41000001;fill-rule:evenodd;stroke:none" />
        <path
           d="M 121.4034,586.42784 C 122.8734,585.37784 124.2534,584.32784 124.6334,584.20784"
           id="p3479"
           style="opacity:1;fill:none;fill-rule:evenodd;stroke:#f39c9c;stroke-width:1px;stroke-linecap:round;stroke-linejoin:miter;stroke-opacity:0.12000002" />
        <path
           d="M 120.6234,587.11784 C 121.2834,586.48784 122.0834,585.99784 122.0834,585.99784"
           id="p3481"
           style="opacity:1;fill:none;fill-rule:evenodd;stroke:#e01b1b;stroke-width:1px;stroke-linecap:round;stroke-linejoin:miter;stroke-opacity:0.17000002" />
        <path
           d="M 117.5834,582.23784 C 117.6934,582.82784 117.7334,583.39784 117.7034,583.92784 C 117.8334,584.28784 118.0134,584.64784 118.2734,584.95784 C 118.3534,585.05784 118.4434,585.15784 118.5234,585.26784 C 119.0234,585.05784 119.5534,584.82784 119.8334,584.95784 C 119.5334,584.46784 119.0834,583.69784 118.6434,582.98784 C 118.6034,583.09784 118.5534,583.14784 118.4934,583.11784 C 118.1834,582.77784 117.8734,582.49784 117.5834,582.23784 z"
           id="p3503"
           style="opacity:1;fill:#3c6a1c;fill-opacity:0.55;fill-rule:evenodd;stroke:none;display:inline" />
        <path
           d="M 110.9934,582.17784 C 110.6934,582.46784 110.4134,582.79784 110.1734,583.11784 C 108.5934,585.18784 109.5234,586.82784 110.0234,585.73784 C 110.2334,585.25784 110.5834,584.51784 111.1434,583.79784 C 111.0234,583.33784 110.9234,582.77784 110.9934,582.17784 z"
           id="p3506"
           style="opacity:1;fill:#d9f2aa;fill-opacity:0.18000004;fill-rule:evenodd;stroke:none;display:inline" />
        <path
           d="M 111.2434,582.46784 C 112.0434,581.66784 112.9334,581.26784 114.4734,581.26784 C 116.0234,581.26784 117.3634,581.41784 117.7634,582.36784 C 118.1534,583.30784 118.5534,584.20784 119.1034,584.35784"
           id="p3509"
           style="opacity:1;fill:none;fill-rule:evenodd;stroke:#506f2b;stroke-width:0.30000001;stroke-linecap:round;stroke-linejoin:miter;stroke-miterlimit:4;stroke-dasharray:none;stroke-opacity:0.43000004;display:inline" />
        <path
           d="M 118.5534,579.18784 C 119.2534,580.37784 119.6934,582.06784 119.9934,583.85784"
           id="p3512"
           style="opacity:1;fill:none;fill-rule:evenodd;stroke:#506f2b;stroke-width:0.30000001;stroke-linecap:round;stroke-linejoin:miter;stroke-miterlimit:4;stroke-dasharray:none;stroke-opacity:0.43000004;display:inline" />
        <path
           d="M 122.1334,595.95784 C 122.4334,597.83784 121.6434,599.37784 120.3734,599.37784 C 119.0934,599.37784 117.8134,597.83784 117.5134,595.95784 C 117.2134,594.06784 118.0034,592.53784 119.2734,592.53784 C 120.5534,592.53784 121.8334,594.06784 122.1334,595.95784 L 122.1334,595.95784 z"
           id="p3344"
           style="opacity:1;fill:#ffffff;fill-opacity:0.47000002;fill-rule:evenodd;stroke:none;marker:none;visibility:visible;display:inline;overflow:visible;enable-background:accumulate" />
        <path
           d="M 128.8434,595.04784 C 128.5234,596.59784 127.3134,597.84784 126.1434,597.84784 C 124.9634,597.84784 124.2734,596.59784 124.5934,595.04784 C 124.9134,593.49784 126.1334,592.23784 127.3034,592.23784 C 128.4734,592.23784 129.1634,593.49784 128.8434,595.04784 L 128.8434,595.04784 z"
           id="p3346"
           style="opacity:1;fill:#ffffff;fill-opacity:0.47000002;fill-rule:evenodd;stroke:none;marker:none;visibility:visible;display:inline;overflow:visible;enable-background:accumulate" />
        <path
           d="M 113.0834,587.86784 C 111.9834,587.86784 110.8234,589.05784 110.5234,590.51784 C 110.2134,591.97784 110.8534,593.14784 111.9534,593.14784 C 112.9134,591.20784 113.7634,590.09784 114.5834,589.42784 C 114.4634,588.50784 113.8934,587.86784 113.0834,587.86784 z"
           id="p3348"
           style="opacity:1;fill:#ffffff;fill-opacity:0.27999998;fill-rule:evenodd;stroke:none;marker:none;visibility:visible;display:inline;overflow:visible;enable-background:accumulate" />
        <path
           d="M 131.4934,587.48784 C 131.1934,587.52784 130.9034,587.67784 130.7034,587.92784 C 131.7134,589.34784 132.6434,590.69784 133.3034,591.86784 C 133.5434,591.78784 133.7734,591.65784 133.9234,591.42784 C 134.4634,590.62784 134.1734,589.20784 133.2734,588.26784 C 132.7034,587.67784 132.0434,587.40784 131.4934,587.48784 z"
           id="p3350"
           style="opacity:1;fill:#ffffff;fill-opacity:0.27999998;fill-rule:evenodd;stroke:none;marker:none;visibility:visible;display:inline;overflow:visible;enable-background:accumulate" />
        <path
           d="M 120.8434,595.41784 C 121.0434,596.29784 120.7134,597.00784 120.1034,597.00784 C 119.4934,597.00784 118.8334,596.29784 118.6334,595.41784 C 118.4334,594.52784 118.7634,593.81784 119.3734,593.81784 C 119.9834,593.81784 120.6434,594.52784 120.8434,595.41784 L 120.8434,595.41784 z"
           id="p3358"
           style="opacity:1;fill:#ffffff;fill-opacity:0.62999998;fill-rule:evenodd;stroke:none;marker:none;visibility:visible;display:inline;overflow:visible;enable-background:accumulate" />
        <path
           d="M 127.4034,595.66784 C 126.9334,596.42784 126.2034,596.70784 125.7734,596.27784 C 125.3334,595.85784 125.3634,594.88784 125.8334,594.11784 C 126.3034,593.34784 127.0334,593.07784 127.4634,593.49784 C 127.8934,593.92784 127.8734,594.89784 127.4034,595.66784 L 127.4034,595.66784 z"
           id="p3360"
           style="opacity:1;fill:#ffffff;fill-opacity:0.62999998;fill-rule:evenodd;stroke:none;marker:none;visibility:visible;display:inline;overflow:visible;enable-background:accumulate" />
        <path
           d="M 133.0234,588.97784 C 133.2334,589.57784 133.0534,590.08784 132.6334,590.13784 C 132.2134,590.18784 131.7034,589.74784 131.5034,589.15784 C 131.3034,588.56784 131.4734,588.04784 131.8934,587.99784 C 132.3234,587.94784 132.8234,588.38784 133.0234,588.97784 L 133.0234,588.97784 z"
           id="p3362"
           style="opacity:1;fill:#ffffff;fill-opacity:0.4;fill-rule:evenodd;stroke:none;marker:none;visibility:visible;display:inline;overflow:visible;enable-background:accumulate" />
        <path
           d="M 112.9234,590.93784 C 112.4734,591.54784 111.8434,591.72784 111.5134,591.33784 C 111.1834,590.94784 111.2834,590.13784 111.7334,589.52784 C 112.1834,588.91784 112.8134,588.73784 113.1434,589.12784 C 113.4734,589.51784 113.3734,590.32784 112.9234,590.93784 L 112.9234,590.93784 z"
           id="p3366"
           style="opacity:1;fill:#ffffff;fill-opacity:0.45;fill-rule:evenodd;stroke:none;marker:none;visibility:visible;display:inline;overflow:visible;enable-background:accumulate" />
        <path
           d="M 118.4534,585.87784 C 119.3434,587.48784 120.9534,587.87784 123.3934,586.87784"
           id="p3459"
           style="opacity:1;fill:none;fill-rule:evenodd;stroke:#363a20;stroke-width:0.69;stroke-linecap:round;stroke-linejoin:miter;stroke-miterlimit:4;stroke-dasharray:none;stroke-opacity:1" />
        <path
           d="M 120.3434,581.70784 C 119.9534,583.48784 121.3434,583.92784 121.7234,583.92784 C 122.1134,583.92784 123.4534,584.42784 123.8334,582.59784 C 124.2234,580.76784 121.8434,580.20784 120.3434,581.70784 z"
           id="p3469"
           style="opacity:1;fill:none;fill-opacity:1;fill-rule:evenodd;stroke:#606c2e;stroke-width:0.30000001;stroke-linecap:butt;stroke-linejoin:miter;stroke-miterlimit:4;stroke-dasharray:none;stroke-opacity:1;display:inline" />
        <path
           d="M 109.4934,586.00784 C 109.8634,586.36784 110.4234,584.87784 110.9434,584.07784 C 111.4634,583.26784 112.9134,581.86784 115.0934,581.98784 C 117.2634,582.10784 117.3834,583.02784 117.5834,583.71784 C 117.7834,584.39784 118.4634,585.15784 118.6734,585.60784 C 118.8734,586.04784 119.2734,586.52784 119.5134,586.72784"
           id="p3521"
           style="opacity:1;fill:none;fill-rule:evenodd;stroke:#3c4a36;stroke-width:0.2;stroke-linecap:butt;stroke-linejoin:miter;stroke-miterlimit:4;stroke-dasharray:none;stroke-opacity:1;display:inline" />
      </g>
    </g>
    <rect
       style="fill:#323232;fill-opacity:1;fill-rule:evenodd;stroke:#ffffff;stroke-width:2;stroke-linecap:butt;stroke-linejoin:miter;marker:none;marker-start:none;marker-mid:none;marker-end:none;stroke-miterlimit:4;stroke-dasharray:none;stroke-dashoffset:0;stroke-opacity:1;visibility:visible;display:inline;overflow:visible;enable-background:accumulate"
       id="rect4719"
       width="45.266361"
       height="45.266361"
       x="265.1608"
       y="423.1947"
       ry="9.0315714" />
    <rect
       style="fill:none;fill-opacity:1;fill-rule:evenodd;stroke:#ffffff;stroke-width:1.5;stroke-linecap:butt;stroke-linejoin:miter;marker:none;marker-start:none;marker-mid:none;marker-end:none;stroke-miterlimit:4;stroke-dasharray:none;stroke-dashoffset:0;stroke-opacity:1;visibility:visible;display:inline;overflow:visible;enable-background:accumulate"
       id="rect5230"
       width="32.796211"
       height="32.796211"
       x="271.39587"
       y="427.04349"
       ry="6.5435195" />
    <rect
       style="fill:#323232;fill-opacity:1;fill-rule:evenodd;stroke:#ffffff;stroke-width:2;stroke-linecap:butt;stroke-linejoin:miter;marker:none;marker-start:none;marker-mid:none;marker-end:none;stroke-miterlimit:4;stroke-dasharray:none;stroke-dashoffset:0;stroke-opacity:1;visibility:visible;display:inline;overflow:visible;enable-background:accumulate"
       id="rect5963"
       width="45.266361"
       height="45.266361"
       x="318.80487"
       y="423.1947"
       ry="9.0315714" />
    <rect
       style="fill:none;fill-opacity:1;fill-rule:evenodd;stroke:#ffffff;stroke-width:1.5;stroke-linecap:butt;stroke-linejoin:miter;marker:none;marker-start:none;marker-mid:none;marker-end:none;stroke-miterlimit:4;stroke-dasharray:none;stroke-dashoffset:0;stroke-opacity:1;visibility:visible;display:inline;overflow:visible;enable-background:accumulate"
       id="rect5965"
       width="32.796211"
       height="32.796211"
       x="325.03995"
       y="427.04349"
       ry="6.5435195" />
    <rect
       style="fill:#323232;fill-opacity:1;fill-rule:evenodd;stroke:#ffffff;stroke-width:2;stroke-linecap:butt;stroke-linejoin:miter;marker:none;marker-start:none;marker-mid:none;marker-end:none;stroke-miterlimit:4;stroke-dasharray:none;stroke-dashoffset:0;stroke-opacity:1;visibility:visible;display:inline;overflow:visible;enable-background:accumulate"
       id="rect5975"
       width="45.266361"
       height="45.266361"
       x="372.06033"
       y="423.1947"
       ry="9.0315714" />
    <rect
       style="fill:none;fill-opacity:1;fill-rule:evenodd;stroke:#ffffff;stroke-width:1.5;stroke-linecap:butt;stroke-linejoin:miter;marker:none;marker-start:none;marker-mid:none;marker-end:none;stroke-miterlimit:4;stroke-dasharray:none;stroke-dashoffset:0;stroke-opacity:1;visibility:visible;display:inline;overflow:visible;enable-background:accumulate"
       id="rect5977"
       width="32.796211"
       height="32.796211"
       x="378.29541"
       y="427.04349"
       ry="6.5435195" />
    <rect
       style="fill:#323232;fill-opacity:1;fill-rule:evenodd;stroke:#ffffff;stroke-width:2;stroke-linecap:butt;stroke-linejoin:miter;marker:none;marker-start:none;marker-mid:none;marker-end:none;stroke-miterlimit:4;stroke-dasharray:none;stroke-dashoffset:0;stroke-opacity:1;visibility:visible;display:inline;overflow:visible;enable-background:accumulate"
       id="rect6090"
       width="45.266361"
       height="45.266361"
       x="318.80487"
       y="368.98157"
       ry="9.0315714" />
    <rect
       style="fill:none;fill-opacity:1;fill-rule:evenodd;stroke:#ffffff;stroke-width:1.5;stroke-linecap:butt;stroke-linejoin:miter;marker:none;marker-start:none;marker-mid:none;marker-end:none;stroke-miterlimit:4;stroke-dasharray:none;stroke-dashoffset:0;stroke-opacity:1;visibility:visible;display:inline;overflow:visible;enable-background:accumulate"
       id="rect6092"
       width="32.796211"
       height="32.796211"
       x="325.03995"
       y="372.83035"
       ry="6.5435195" />
    <text
       xml:space="preserve"
       style="font-size:21.69905853px;font-style:normal;font-variant:normal;font-weight:normal;font-stretch:normal;fill:#ffffff;fill-opacity:1;stroke:none;font-family:Arial Black;-inkscape-font-specification:Arial Black"
       x="91.179878"
       y="513.58856"
       id="text6098"><tspan
         sodipodi:role="line"
         x="91.179878"
         y="513.58856"
         id="tspan6116">Player 1</tspan></text>
    <rect
       style="opacity:1;fill:none;fill-opacity:1;fill-rule:evenodd;stroke:#ffffff;stroke-width:1;stroke-linecap:butt;stroke-linejoin:miter;marker:none;marker-start:none;marker-mid:none;marker-end:none;stroke-miterlimit:4;stroke-dasharray:3,3;stroke-dashoffset:0;stroke-opacity:1;visibility:visible;display:inline;overflow:visible;enable-background:accumulate"
       id="rect6166"
       width="455.04758"
       height="181.04758"
       x="11.976208"
       y="353.9762" />
    <rect
       style="fill:#323232;fill-opacity:1;fill-rule:evenodd;stroke:#ffffff;stroke-width:2;stroke-linecap:butt;stroke-linejoin:miter;marker:none;marker-start:none;marker-mid:none;marker-end:none;stroke-miterlimit:4;stroke-dasharray:none;stroke-dashoffset:0;stroke-opacity:1;visibility:visible;display:inline;overflow:visible;enable-background:accumulate"
       id="rect2472"
       width="45.266361"
       height="45.266361"
       x="31.535797"
       y="423.1947"
       ry="9.0315714" />
    <rect
       style="fill:none;fill-opacity:1;fill-rule:evenodd;stroke:#ffffff;stroke-width:1.5;stroke-linecap:butt;stroke-linejoin:miter;marker:none;marker-start:none;marker-mid:none;marker-end:none;stroke-miterlimit:4;stroke-dasharray:none;stroke-dashoffset:0;stroke-opacity:1;visibility:visible;display:inline;overflow:visible;enable-background:accumulate"
       id="rect2474"
       width="32.796211"
       height="32.796211"
       x="37.770874"
       y="427.04349"
       ry="6.5435195" />
    <rect
       style="fill:#323232;fill-opacity:1;fill-rule:evenodd;stroke:#ffffff;stroke-width:2;stroke-linecap:butt;stroke-linejoin:miter;marker:none;marker-start:none;marker-mid:none;marker-end:none;stroke-miterlimit:4;stroke-dasharray:none;stroke-dashoffset:0;stroke-opacity:1;visibility:visible;display:inline;overflow:visible;enable-background:accumulate"
       id="rect2476"
       width="45.266361"
       height="45.266361"
       x="85.179871"
       y="423.1947"
       ry="9.0315714" />
    <rect
       style="fill:none;fill-opacity:1;fill-rule:evenodd;stroke:#ffffff;stroke-width:1.5;stroke-linecap:butt;stroke-linejoin:miter;marker:none;marker-start:none;marker-mid:none;marker-end:none;stroke-miterlimit:4;stroke-dasharray:none;stroke-dashoffset:0;stroke-opacity:1;visibility:visible;display:inline;overflow:visible;enable-background:accumulate"
       id="rect2478"
       width="32.796211"
       height="32.796211"
       x="91.414948"
       y="427.04349"
       ry="6.5435195" />
    <rect
       style="fill:#323232;fill-opacity:1;fill-rule:evenodd;stroke:#ffffff;stroke-width:2;stroke-linecap:butt;stroke-linejoin:miter;marker:none;marker-start:none;marker-mid:none;marker-end:none;stroke-miterlimit:4;stroke-dasharray:none;stroke-dashoffset:0;stroke-opacity:1;visibility:visible;display:inline;overflow:visible;enable-background:accumulate"
       id="rect2480"
       width="45.266361"
       height="45.266361"
       x="138.43533"
       y="423.1947"
       ry="9.0315714" />
    <rect
       style="fill:none;fill-opacity:1;fill-rule:evenodd;stroke:#ffffff;stroke-width:1.5;stroke-linecap:butt;stroke-linejoin:miter;marker:none;marker-start:none;marker-mid:none;marker-end:none;stroke-miterlimit:4;stroke-dasharray:none;stroke-dashoffset:0;stroke-opacity:1;visibility:visible;display:inline;overflow:visible;enable-background:accumulate"
       id="rect2482"
       width="32.796211"
       height="32.796211"
       x="144.67041"
       y="427.04349"
       ry="6.5435195" />
    <path
       d="M 173.20722,443.15101 C 173.2014,443.90754 172.90461,444.63498 172.36922,445.17037 L 164.34998,453.17215 C 163.62837,453.97523 162.52267,454.30694 161.47516,454.04507 C 160.43348,453.78901 159.63039,452.9801 159.36851,451.93842 C 159.10664,450.89673 159.44417,449.78521 160.24143,449.0636 L 163.2792,446.02583 L 152.0418,446.02583 C 150.98847,446.04329 150.02244,445.49626 149.49287,444.58842 C 148.9633,443.6864 148.9633,442.55161 149.49287,441.64377 C 150.02244,440.73593 150.98847,440.19472 152.0418,440.20636 L 163.2792,440.20636 L 160.24143,437.1686 C 159.44417,436.4528 159.10664,435.34128 159.36851,434.29959 C 159.63039,433.25209 160.43348,432.449 161.47516,432.18713 C 162.52267,431.92525 163.62837,432.26278 164.34998,433.06005 L 172.35176,441.04436 C 172.91043,441.60303 173.21886,442.36538 173.20722,443.15101 z"
       id="path2484"
       style="fill:#ffffff;fill-opacity:1;fill-rule:evenodd;stroke:none;stroke-width:2;stroke-linecap:round;stroke-linejoin:miter;marker:none;stroke-miterlimit:4;stroke-dasharray:none;stroke-dashoffset:0;stroke-opacity:0.5;visibility:visible;display:inline;overflow:visible;enable-background:accumulate" />
    <rect
       style="fill:#323232;fill-opacity:1;fill-rule:evenodd;stroke:#ffffff;stroke-width:2;stroke-linecap:butt;stroke-linejoin:miter;marker:none;marker-start:none;marker-mid:none;marker-end:none;stroke-miterlimit:4;stroke-dasharray:none;stroke-dashoffset:0;stroke-opacity:1;visibility:visible;display:inline;overflow:visible;enable-background:accumulate"
       id="rect2486"
       width="45.266361"
       height="45.266361"
       x="85.179871"
       y="368.98157"
       ry="9.0315714" />
    <rect
       style="fill:none;fill-opacity:1;fill-rule:evenodd;stroke:#ffffff;stroke-width:1.5;stroke-linecap:butt;stroke-linejoin:miter;marker:none;marker-start:none;marker-mid:none;marker-end:none;stroke-miterlimit:4;stroke-dasharray:none;stroke-dashoffset:0;stroke-opacity:1;visibility:visible;display:inline;overflow:visible;enable-background:accumulate"
       id="rect2488"
       width="32.796211"
       height="32.796211"
       x="91.414948"
       y="372.83035"
       ry="6.5435195" />
    <path
       d="M 108.06933,377.20646 C 107.3128,377.21228 106.58536,377.50907 106.04997,378.04446 L 98.04819,386.0637 C 97.24511,386.78531 96.9134,387.89101 97.17527,388.93852 C 97.43133,389.9802 98.24024,390.78329 99.28192,391.04517 C 100.32361,391.30704 101.43513,390.96951 102.15674,390.17225 L 105.19451,387.13448 L 105.19451,398.37187 C 105.17705,399.4252 105.72408,400.39123 106.63192,400.9208 C 107.53394,401.45037 108.66873,401.45037 109.57657,400.9208 C 110.48441,400.39123 111.02562,399.4252 111.01398,398.37187 L 111.01398,387.13448 L 114.05174,390.17225 C 114.76754,390.96951 115.87906,391.30704 116.92075,391.04517 C 117.96825,390.78329 118.77134,389.9802 119.03321,388.93852 C 119.29509,387.89101 118.95756,386.78531 118.16029,386.0637 L 110.17598,378.06192 C 109.61731,377.50325 108.85496,377.19482 108.06933,377.20646 z"
       id="path2490"
       style="fill:#ffffff;fill-opacity:1;fill-rule:evenodd;stroke:none;stroke-width:2;stroke-linecap:round;stroke-linejoin:miter;marker:none;stroke-miterlimit:4;stroke-dasharray:none;stroke-dashoffset:0;stroke-opacity:0.5;visibility:visible;display:inline;overflow:visible;enable-background:accumulate" />
    <path
       d="M 42.26142,441.38497 C 42.26724,442.1415 42.56403,442.86894 43.09942,443.40433 L 51.11866,451.40611 C 51.84027,452.20919 52.94597,452.5409 53.99348,452.27903 C 55.03516,452.02297 55.83825,451.21406 56.10013,450.17238 C 56.362,449.13069 56.02447,448.01917 55.22721,447.29756 L 52.18944,444.25979 L 63.42684,444.25979 C 64.48017,444.27725 65.4462,443.73022 65.97577,442.82238 C 66.50534,441.92036 66.50534,440.78557 65.97577,439.87773 C 65.4462,438.96989 64.48017,438.42868 63.42684,438.44032 L 52.18944,438.44032 L 55.22721,435.40256 C 56.02447,434.68676 56.362,433.57524 56.10013,432.53355 C 55.83825,431.48605 55.03516,430.68296 53.99348,430.42109 C 52.94597,430.15921 51.84027,430.49674 51.11866,431.29401 L 43.11688,439.27832 C 42.55821,439.83699 42.24978,440.59934 42.26142,441.38497 z"
       id="path2492"
       style="fill:#ffffff;fill-opacity:1;fill-rule:evenodd;stroke:none;stroke-width:2;stroke-linecap:round;stroke-linejoin:miter;marker:none;stroke-miterlimit:4;stroke-dasharray:none;stroke-dashoffset:0;stroke-opacity:0.5;visibility:visible;display:inline;overflow:visible;enable-background:accumulate" />
    <path
       d="M 108.13847,454.31766 C 108.895,454.31184 109.62244,454.01505 110.15783,453.47966 L 118.15961,445.46042 C 118.96269,444.73881 119.2944,443.63311 119.03253,442.5856 C 118.77647,441.54392 117.96756,440.74083 116.92588,440.47895 C 115.88419,440.21708 114.77267,440.55461 114.05106,441.35187 L 111.01329,444.38964 L 111.01329,433.15225 C 111.03075,432.09892 110.48372,431.13289 109.57588,430.60332 C 108.67386,430.07375 107.53907,430.07375 106.63123,430.60332 C 105.72339,431.13289 105.18218,432.09892 105.19382,433.15225 L 105.19382,444.38964 L 102.15606,441.35187 C 101.44026,440.55461 100.32874,440.21708 99.28705,440.47895 C 98.23955,440.74083 97.43646,441.54392 97.17459,442.5856 C 96.91271,443.63311 97.25024,444.73881 98.04751,445.46042 L 106.03182,453.4622 C 106.59049,454.02087 107.35284,454.3293 108.13847,454.31766 z"
       id="path2494"
       style="fill:#ffffff;fill-opacity:1;fill-rule:evenodd;stroke:none;stroke-width:2;stroke-linecap:round;stroke-linejoin:miter;marker:none;stroke-miterlimit:4;stroke-dasharray:none;stroke-dashoffset:0;stroke-opacity:0.5;visibility:visible;display:inline;overflow:visible;enable-background:accumulate" />
    <text
       xml:space="preserve"
       style="font-size:21.69905853px;font-style:normal;font-variant:normal;font-weight:normal;font-stretch:normal;fill:#ffffff;fill-opacity:1;stroke:none;font-family:Arial Black;-inkscape-font-specification:Arial Black"
       x="326.12988"
       y="513.58856"
       id="text2516"><tspan
         sodipodi:role="line"
         x="326.12988"
         y="513.58856"
         id="tspan2518">Player 2</tspan></text>
    <text
       xml:space="preserve"
       style="font-size:32.26842499px;font-style:normal;font-variant:normal;font-weight:normal;font-stretch:normal;fill:#ffffff;fill-opacity:1;stroke:none;stroke-width:1px;stroke-linecap:butt;stroke-linejoin:miter;stroke-opacity:1;font-family:Arial Black;-inkscape-font-specification:Arial Black"
       x="329.34131"
       y="400.423"
       id="text2520"><tspan
         sodipodi:role="line"
         id="tspan2522"
         x="329.34131"
         y="400.423">R</tspan></text>
    <text
       xml:space="preserve"
       style="font-size:32.26842499px;font-style:normal;font-variant:normal;font-weight:normal;font-stretch:normal;fill:#ffffff;fill-opacity:1;stroke:none;stroke-width:1px;stroke-linecap:butt;stroke-linejoin:miter;stroke-opacity:1;font-family:Arial Black;-inkscape-font-specification:Arial Black"
       x="330.83954"
       y="454.35895"
       id="text2524"><tspan
         sodipodi:role="line"
         id="tspan2526"
         x="330.83954"
         y="454.35895">F</tspan></text>
    <text
       xml:space="preserve"
       style="font-size:32.26842499px;font-style:normal;font-variant:normal;font-weight:normal;font-stretch:normal;fill:#ffffff;fill-opacity:1;stroke:none;stroke-width:1px;stroke-linecap:butt;stroke-linejoin:miter;stroke-opacity:1;font-family:Arial Black;-inkscape-font-specification:Arial Black"
       x="276.15448"
       y="454.35895"
       id="text2528"><tspan
         sodipodi:role="line"
         id="tspan2530"
         x="276.15448"
         y="454.35895">D</tspan></text>
    <text
       xml:space="preserve"
       style="font-size:32.26842499px;font-style:normal;font-variant:normal;font-weight:normal;font-stretch:normal;fill:#ffffff;fill-opacity:1;stroke:none;stroke-width:1px;stroke-linecap:butt;stroke-linejoin:miter;stroke-opacity:1;font-family:Arial Black;-inkscape-font-specification:Arial Black"
       x="381.77902"
       y="454.35895"
       id="text2532"><tspan
         sodipodi:role="line"
         id="tspan2534"
         x="381.77902"
         y="454.35895">G</tspan></text>
    <text
       xml:space="preserve"
       style="font-size:21.69905853px;font-style:normal;font-variant:normal;font-weight:normal;font-stretch:normal;fill:#ffffff;fill-opacity:1;stroke:none;font-family:Arial Black;-inkscape-font-specification:Arial Black"
       x="257.91293"
       y="45.298378"
       id="text2405-3"><tspan
         sodipodi:role="line"
         x="257.91293"
         y="45.298378"
         id="tspan3102-3">Thanks:</tspan><tspan
         sodipodi:role="line"
         x="257.91293"
         y="72.422203"
         id="tspan3197">  .OpenGameArt</tspan></text>
    <rect
       style="fill:#323232;fill-opacity:1;fill-rule:evenodd;stroke:#ffffff;stroke-width:2;stroke-linecap:butt;stroke-linejoin:miter;stroke-miterlimit:4;stroke-opacity:1;stroke-dasharray:none;stroke-dashoffset:0;marker:none;visibility:visible;display:inline;overflow:visible;enable-background:accumulate"
       id="rect4719-8"
       width="45.266361"
       height="45.266361"
       x="265.1608"
       y="475.63242"
       ry="9.0315714" />
    <rect
       style="fill:none;stroke:#ffffff;stroke-width:1.5;stroke-linecap:butt;stroke-linejoin:miter;stroke-miterlimit:4;stroke-opacity:1;stroke-dasharray:none;stroke-dashoffset:0;marker:none;visibility:visible;display:inline;overflow:visible;enable-background:accumulate"
       id="rect5230-2"
       width="32.796211"
       height="32.796211"
       x="271.39587"
       y="479.4812"
       ry="6.5435195" />
    <text
       xml:space="preserve"
       style="font-size:32.26842499px;font-style:normal;font-variant:normal;font-weight:normal;font-stretch:normal;fill:#ffffff;fill-opacity:1;stroke:none;font-family:Arial Black;-inkscape-font-specification:Arial Black"
       x="276.15448"
       y="506.79666"
       id="text2528-9"><tspan
         sodipodi:role="line"
         id="tspan2530-0"
         x="276.15448"
         y="506.79666">E</tspan></text>
    <rect
       style="fill:#323232;fill-opacity:1;fill-rule:evenodd;stroke:#ffffff;stroke-width:2;stroke-linecap:butt;stroke-linejoin:miter;stroke-miterlimit:4;stroke-opacity:1;stroke-dasharray:none;stroke-dashoffset:0;marker:none;visibility:visible;display:inline;overflow:visible;enable-background:accumulate"
       id="rect4719-8-8"
       width="45.266361"
       height="45.266361"
       x="31.433325"
       y="475.63242"
       ry="9.0315714" />
    <rect
       style="fill:none;stroke:#ffffff;stroke-width:1.5;stroke-linecap:butt;stroke-linejoin:miter;stroke-miterlimit:4;stroke-opacity:1;stroke-dasharray:none;stroke-dashoffset:0;marker:none;visibility:visible;display:inline;overflow:visible;enable-background:accumulate"
       id="rect5230-2-8"
       width="32.796211"
       height="32.796211"
       x="37.668404"
       y="479.4812"
       ry="6.5435195" />
    <text
       xml:space="preserve"
       style="font-size:32.26842499px;font-style:normal;font-variant:normal;font-weight:normal;font-stretch:normal;fill:#ffffff;fill-opacity:1;stroke:none;font-family:Arial Black;-inkscape-font-specification:Arial Black"
       x="42.42701"
       y="506.79666"
       id="text2528-9-6"><tspan
         sodipodi:role="line"
         id="tspan2530-0-0"
         x="42.42701"
         y="506.79666">L</tspan></text>
  </g>
</svg>
