<?xml version="1.0" encoding="UTF-8" standalone="no"?>
<!-- Created with Inkscape (http://www.inkscape.org/) -->
<svg
   xmlns:dc="http://purl.org/dc/elements/1.1/"
   xmlns:cc="http://creativecommons.org/ns#"
   xmlns:rdf="http://www.w3.org/1999/02/22-rdf-syntax-ns#"
   xmlns:svg="http://www.w3.org/2000/svg"
   xmlns="http://www.w3.org/2000/svg"
   xmlns:sodipodi="http://sodipodi.sourceforge.net/DTD/sodipodi-0.dtd"
   xmlns:inkscape="http://www.inkscape.org/namespaces/inkscape"
   width="48px"
   height="48px"
   id="svg2383"
   sodipodi:version="0.32"
   inkscape:version="0.46"
   sodipodi:docname="icon.svg"
   inkscape:output_extension="org.inkscape.output.svg.inkscape">
  <defs
     id="defs2385">
    <inkscape:perspective
       sodipodi:type="inkscape:persp3d"
       inkscape:vp_x="0 : 24 : 1"
       inkscape:vp_y="0 : 1000 : 0"
       inkscape:vp_z="48 : 24 : 1"
       inkscape:persp3d-origin="24 : 16 : 1"
       id="perspective2391" />
    <inkscape:perspective
       id="perspective3269"
       inkscape:persp3d-origin="0.5 : 0.33333333 : 1"
       inkscape:vp_z="1 : 0.5 : 1"
       inkscape:vp_y="0 : 1000 : 0"
       inkscape:vp_x="0 : 0.5 : 1"
       sodipodi:type="inkscape:persp3d" />
    <inkscape:perspective
       id="perspective2735"
       inkscape:persp3d-origin="0.5 : 0.33333333 : 1"
       inkscape:vp_z="1 : 0.5 : 1"
       inkscape:vp_y="0 : 1000 : 0"
       inkscape:vp_x="0 : 0.5 : 1"
       sodipodi:type="inkscape:persp3d" />
  </defs>
  <sodipodi:namedview
     id="base"
     pagecolor="#ffffff"
     bordercolor="#666666"
     borderopacity="1.0"
     inkscape:pageopacity="0.0"
     inkscape:pageshadow="2"
     inkscape:zoom="4.9091979"
     inkscape:cx="26.455295"
     inkscape:cy="12.500745"
     inkscape:current-layer="layer1"
     showgrid="true"
     inkscape:grid-bbox="true"
     inkscape:document-units="px"
     inkscape:window-width="1092"
     inkscape:window-height="670"
     inkscape:window-x="0"
     inkscape:window-y="278" />
  <metadata
     id="metadata2388">
    <rdf:RDF>
      <cc:Work
         rdf:about="">
        <dc:format>image/svg+xml</dc:format>
        <dc:type
           rdf:resource="http://purl.org/dc/dcmitype/StillImage" />
      </cc:Work>
    </rdf:RDF>
  </metadata>
  <g
     id="layer1"
     inkscape:label="Layer 1"
     inkscape:groupmode="layer">
    <rect
       style="opacity:1;fill:#3e1812;fill-opacity:1;fill-rule:evenodd;stroke:none;stroke-width:5;stroke-linecap:round;stroke-linejoin:miter;marker:none;marker-start:none;marker-mid:none;marker-end:none;stroke-miterlimit:4;stroke-dasharray:none;stroke-dashoffset:0;stroke-opacity:1;visibility:visible;display:inline;overflow:visible;enable-background:accumulate"
       id="rect2393"
       width="48"
       height="48"
       x="0"
       y="0"
       rx="6"
       ry="6" />
    <path
       style="opacity:1;fill:#ffff97;fill-opacity:0.07727273;fill-rule:evenodd;stroke:none;stroke-width:5;stroke-linecap:round;stroke-linejoin:miter;marker:none;marker-start:none;marker-mid:none;marker-end:none;stroke-miterlimit:4;stroke-dasharray:none;stroke-dashoffset:0;stroke-opacity:1;visibility:visible;display:inline;overflow:visible;enable-background:accumulate"
       d="M 6 0 C 2.676 0 8.4138425e-18 2.676 0 6 L 0 10.875 C 3.7321595 15.665072 13.357526 19.0625 24.65625 19.0625 C 34.802874 19.0625 43.605513 16.311877 48 12.28125 L 48 6 C 48 2.676 45.324 8.4138425e-18 42 0 L 6 0 z "
       id="path3438" />
    <path
       d="M 28.068807,3.6457244 C 27.981475,3.6544576 27.998942,3.8116553 28.173606,4.1609835 C 28.706331,5.2264345 27.754412,8.3179891 26.400765,10.981617 C 25.737042,11.095148 25.239249,11.23488 24.924854,11.287279 C 24.444527,10.99035 23.536274,10.841885 22.497023,10.789486 C 22.645487,8.4489872 24.138865,5.2788337 24.138865,5.2788337 C 24.138865,5.2788337 23.807003,5.0517704 23.614873,4.8159739 C 23.36161,5.1129028 21.405372,8.2830563 21.405372,10.789486 C 19.754796,10.850619 18.034355,11.173747 17.2309,11.828737 C 10.768328,10.317893 3.9040292,17.190925 4.873415,26.675186 C 5.8340676,36.159447 17.239633,43.329408 23.291744,42.910214 C 29.335122,42.499753 40.17303,34.255608 41.683874,27.793036 C 42.932722,22.474514 39.911033,17.252058 35.954892,14.12557 C 36.636082,14.186703 37.291072,14.247835 37.675333,14.308968 C 38.513721,14.448699 40.915352,15.723747 41.055083,14.3701 C 40.679555,15.243421 38.015928,13.592845 35.18637,13.522979 C 34.575045,13.086319 33.946254,12.728258 33.30873,12.405129 C 32.985602,12.239198 32.67994,12.099467 32.383011,11.968469 C 32.671207,11.872404 32.89827,11.802538 32.89827,11.802538 L 33.474661,12.160599 C 33.474661,12.160599 33.789057,11.872404 32.758539,11.313478 C 32.243279,11.025283 31.745487,10.763286 31.177828,10.737087 C 30.793567,10.71962 30.383107,10.841885 29.920247,11.121348 C 29.308923,10.972883 28.749997,10.903018 28.260938,10.876818 C 28.819863,9.3485073 29.265257,7.5931331 29.352589,6.396684 C 29.457387,4.9207723 28.330804,3.6107916 28.068807,3.6457244 z"
       id="stroke01"
       style="opacity:1;fill:none;fill-opacity:1;fill-rule:evenodd;stroke:#ffffff;stroke-width:1.60000000000000009;stroke-linecap:butt;stroke-linejoin:round;stroke-miterlimit:4;stroke-dasharray:none;stroke-opacity:1" />
    <path
       d="M 28.068807,3.6457244 C 27.981475,3.6544576 27.998942,3.8116553 28.173606,4.1609835 C 28.706331,5.2264345 27.754412,8.3179891 26.400765,10.981617 C 25.737042,11.095148 25.239249,11.23488 24.924854,11.287279 C 24.444527,10.99035 23.536274,10.841885 22.497023,10.789486 C 22.645487,8.4489872 24.138865,5.2788337 24.138865,5.2788337 C 24.138865,5.2788337 23.807003,5.0517704 23.614873,4.8159739 C 23.36161,5.1129028 21.405372,8.2830563 21.405372,10.789486 C 19.754796,10.850619 18.034355,11.173747 17.2309,11.828737 C 10.768328,10.317893 3.9040292,17.190925 4.873415,26.675186 C 5.8340676,36.159447 17.239633,43.329408 23.291744,42.910214 C 29.335122,42.499753 40.17303,34.255608 41.683874,27.793036 C 42.932722,22.474514 39.911033,17.252058 35.954892,14.12557 C 36.636082,14.186703 37.291072,14.247835 37.675333,14.308968 C 38.513721,14.448699 40.915352,15.723747 41.055083,14.3701 C 40.679555,15.243421 38.015928,13.592845 35.18637,13.522979 C 34.575045,13.086319 33.946254,12.728258 33.30873,12.405129 C 32.985602,12.239198 32.67994,12.099467 32.383011,11.968469 C 32.671207,11.872404 32.89827,11.802538 32.89827,11.802538 L 33.474661,12.160599 C 33.474661,12.160599 33.789057,11.872404 32.758539,11.313478 C 32.243279,11.025283 31.745487,10.763286 31.177828,10.737087 C 30.793567,10.71962 30.383107,10.841885 29.920247,11.121348 C 29.308923,10.972883 28.749997,10.903018 28.260938,10.876818 C 28.819863,9.3485073 29.265257,7.5931331 29.352589,6.396684 C 29.457387,4.9207723 28.330804,3.6107916 28.068807,3.6457244 z"
       id="p3262"
       style="opacity:1;fill:#fc6131;fill-opacity:1;fill-rule:evenodd;stroke:none" />
    <path
       d="M 28.068807,3.6457244 C 27.981475,3.6544576 27.998942,3.8116553 28.173606,4.1609835 C 28.706331,5.2264345 27.754412,8.3179891 26.400765,10.981617 C 25.737042,11.095148 25.239249,11.23488 24.924854,11.287279 C 24.444527,10.99035 23.536274,10.841885 22.497023,10.789486 C 22.645487,8.4489872 24.138865,5.2788337 24.138865,5.2788337 C 24.138865,5.2788337 23.807003,5.0517704 23.614873,4.8159739 C 23.36161,5.1129028 21.405372,8.2830563 21.405372,10.789486 C 19.754796,10.850619 18.034355,11.173747 17.2309,11.828737 C 10.768328,10.317893 3.9040292,17.190925 4.873415,26.675186 C 5.8340676,36.159447 17.239633,43.329408 23.291744,42.910214 C 25.151917,42.787949 27.457483,41.897162 29.815448,40.569715 C 20.88138,26.395723 26.470631,17.645052 38.496254,16.605801 C 37.718999,15.680081 36.871878,14.841693 35.954892,14.12557 C 36.636082,14.186703 37.291072,14.247835 37.675333,14.308968 C 38.513721,14.448699 40.915352,15.723747 41.055083,14.3701 C 40.679555,15.243421 38.015928,13.592845 35.18637,13.522979 C 34.575045,13.086319 33.946254,12.728258 33.30873,12.405129 C 32.985602,12.239198 32.67994,12.099467 32.383011,11.968469 C 32.671207,11.872404 32.89827,11.802538 32.89827,11.802538 L 33.474661,12.160599 C 33.474661,12.160599 33.789057,11.872404 32.758539,11.313478 C 32.243279,11.025283 31.745487,10.763286 31.177828,10.737087 C 30.793567,10.71962 30.383107,10.841885 29.920247,11.121348 C 29.308923,10.972883 28.749997,10.903018 28.260938,10.876818 C 28.819863,9.3485073 29.265257,7.5931331 29.352589,6.396684 C 29.457387,4.9207723 28.330804,3.6107916 28.068807,3.6457244 z"
       id="p3311"
       style="opacity:1;fill:#742b15;fill-opacity:0.22000002;fill-rule:evenodd;stroke:none;display:inline" />
    <path
       d="M 10.270536,13.330849 C 6.7423209,15.793613 4.2620907,20.71914 4.873415,26.675186 C 5.8340676,36.159447 17.239633,43.329408 23.291744,42.910214 C 24.531859,42.831615 25.972838,42.394955 27.492416,41.739965 C 3.7031655,35.862518 3.6332999,23.574898 10.270536,13.330849 z"
       id="p3287"
       style="opacity:1;fill:#2c0303;fill-opacity:0.37000002;fill-rule:evenodd;stroke:none;display:inline" />
    <path
       d="M 28.068807,3.6457244 C 27.981475,3.6544576 27.998942,3.8116553 28.173606,4.1609835 C 28.697598,5.2002349 27.798078,8.1345918 26.514297,10.737087 C 27.186754,10.379025 27.91161,10.047164 28.671399,9.7240351 C 29.038193,8.527586 29.282723,7.2962041 29.352589,6.396684 C 29.457387,4.9207723 28.330804,3.6107916 28.068807,3.6457244 z M 23.614873,4.8159739 C 23.36161,5.1129028 21.405372,8.2830563 21.405372,10.789486 C 19.754796,10.850619 18.034355,11.173747 17.2309,11.828737 C 10.768328,10.317893 3.9040292,17.190925 4.873415,26.675186 C 5.8340676,36.159447 17.239633,43.329408 23.291744,42.910214 C 29.335122,42.499753 40.17303,34.255608 41.683874,27.793036 C 42.155467,25.775666 42.015736,23.758296 41.439344,21.871923 C 21.108443,44.613189 7.5370425,21.409063 25.885506,11.095148 C 25.527445,11.165014 25.134451,11.252346 24.924854,11.287279 C 24.444527,10.99035 23.536274,10.841885 22.497023,10.789486 C 22.645487,8.4489872 24.138865,5.2788337 24.138865,5.2788337 C 24.138865,5.2788337 23.807003,5.0517704 23.614873,4.8159739 z"
       id="p3317"
       style="opacity:1;fill:#ef3200;fill-opacity:0.33000004;fill-rule:evenodd;stroke:none;display:inline" />
    <path
       d="M 21.405372,31.312518 C 19.379269,31.39985 18.287618,32.744763 19.003741,35.21626 C 19.973126,38.526145 21.29184,41.425569 23.754604,42.857815 C 26.392032,42.525953 29.789249,40.849178 32.950669,38.543612 C 28.898462,33.513286 24.23493,31.198986 21.405372,31.312518 z"
       id="p3290"
       style="opacity:1;fill:#b71a00;fill-opacity:0.22000002;fill-rule:evenodd;stroke:none;display:inline" />
    <path
       d="M 41.954603,24.954745 C 35.919959,32.194572 25.440113,39.949658 36.906811,35.190061 C 39.299709,32.797163 41.124949,30.177201 41.683874,27.793036 C 41.910937,26.841117 41.989536,25.889198 41.954603,24.954745 z"
       id="p3293"
       style="opacity:1;fill:#b2330c;fill-opacity:0.41000001;fill-rule:evenodd;stroke:none;display:inline" />
    <path
       d="M 8.663626,35.085262 C 12.776966,40.045723 19.230804,43.189677 23.291744,42.910214 C 24.339729,42.840348 25.544911,42.534686 26.811226,42.036894 C 18.960075,42.089293 14.226678,39.067604 8.663626,35.085262 z"
       id="p3296"
       style="opacity:1;fill:#f8b49f;fill-opacity:0.41000001;fill-rule:evenodd;stroke:none;display:inline" />
    <path
       d="M 15.40566,11.610407 C 9.5456797,11.619141 4.0000945,18.081712 4.873415,26.675186 C 5.4934726,32.788429 10.4452,37.923554 15.510459,40.700713 C 7.9999024,28.526625 10.942992,19.068564 15.86852,11.636607 C 15.720056,11.627874 15.554125,11.610407 15.40566,11.610407 z"
       id="p3320"
       style="opacity:1;fill:#9d210c;fill-opacity:0.18000004;fill-rule:evenodd;stroke:none;display:inline" />
    <path
       d="M 15.536658,16.055609 C 15.222263,16.073075 14.715737,16.160407 14.008347,16.335071 C 8.8732229,18.649371 6.2532614,21.042269 4.873415,23.400234 C 4.7773497,24.448219 4.7511501,25.539869 4.873415,26.675186 C 5.0306127,28.255896 5.4847394,29.758007 6.1484629,31.18152 C 7.2313804,30.788526 8.2094993,29.862806 8.279365,28.692556 C 8.5850271,23.714629 7.6767738,22.151386 12.349038,19.033632 C 14.925334,17.31319 16.916505,16.003209 15.536658,16.055609 z"
       id="p3384"
       style="opacity:1;fill:#b23d28;fill-opacity:0.33000004;fill-rule:evenodd;stroke:none;display:inline" />
    <path
       d="M 6.9431846,19.173363 C 6.4977911,19.208296 6.0523977,19.391693 5.6594035,19.714822 C 4.9432806,21.775858 4.6114189,24.12509 4.873415,26.675186 C 5.7030695,34.866932 14.331476,41.329504 20.558251,42.665684 C 16.209115,24.098891 14.28781,29.303881 11.423319,23.129505 C 10.22687,20.553209 8.4889619,19.033632 6.9431846,19.173363 z"
       id="p3329"
       style="opacity:1;fill:#9d210c;fill-opacity:0.18000004;fill-rule:evenodd;stroke:none;display:inline" />
    <path
       d="M 36.173222,35.871251 C 31.736754,36.727105 29.221591,37.783823 30.819767,39.967124 C 32.688673,38.814341 34.531379,37.408295 36.173222,35.871251 z"
       id="p3332"
       style="opacity:1;fill:#e9d9d6;fill-opacity:0.26000001;fill-rule:evenodd;stroke:none;display:inline" />
    <path
       d="M 7.0829159,32.928161 C 10.90806,39.120003 18.663146,43.224609 23.291744,42.910214 C 25.684643,42.753016 28.83733,41.338237 31.859018,39.312134 C 19.466601,37.591692 15.108731,34.264341 7.0829159,32.928161 z"
       id="p3368"
       style="opacity:1;fill:#c02105;fill-opacity:0.47000002;fill-rule:evenodd;stroke:none;display:inline" />
    <path
       d="M 19.291936,20.081616 C 19.562666,17.33939 15.580324,16.649467 13.108827,21.461463 C 10.63733,26.273459 12.279173,29.705608 12.969096,30.945723 C 13.929749,28.334495 16.951438,21.732192 19.291936,20.081616 z"
       id="p3371"
       style="opacity:1;fill:#fa8d3e;fill-opacity:0.31000001;fill-rule:evenodd;stroke:none;display:inline" />
    <path
       d="M 5.0917451,21.627393 C 4.7686165,23.190637 4.6900177,24.884879 4.873415,26.675186 C 5.510939,32.971827 10.750862,38.237949 15.973319,40.945243 C 14.471207,35.303593 10.951726,28.203497 5.0917451,21.627393 z"
       id="p3379"
       style="opacity:1;fill:#a51700;fill-opacity:0.37000002;fill-rule:evenodd;stroke:none" />
    <path
       d="M 18.759211,11.147547 C 18.13042,11.313478 17.588961,11.540542 17.2309,11.828737 C 11.458252,10.475091 5.3799409,15.846012 4.8384822,23.784495 C 8.8382901,12.239198 13.868616,12.247931 17.152301,12.972787 C 20.584451,13.741309 22.497023,15.898411 22.497023,15.898411 C 22.497023,15.898411 20.863913,13.357048 18.759211,11.147547 z"
       id="p3390"
       style="opacity:1;fill:#d67c6a;fill-opacity:0.56999972;fill-rule:evenodd;stroke:none;display:inline" />
    <path
       d="M 24.820055,19.086031 C 21.885698,19.086031 20.051725,16.239006 21.064777,14.771828 C 20.147791,13.304649 19.780996,12.387663 19.780996,12.387663 C 19.780996,12.387663 22.069096,14.405033 22.802685,15.225954 C 23.536274,16.055609 29.230324,14.58843 28.12994,16.239006 C 27.029556,17.889582 26.479364,19.173363 24.820055,19.086031 z"
       id="p3335"
       style="opacity:1;fill:#a0a77d;fill-opacity:0.98000004;fill-rule:evenodd;stroke:none;display:inline" />
    <path
       d="M 19.772263,12.378929 C 19.772263,12.378929 20.139057,13.304649 21.056044,14.780561 C 20.689249,15.304553 20.706716,15.994476 20.994911,16.684399 C 21.239441,16.623267 21.396639,16.43987 21.431572,16.116741 C 21.518904,15.418085 21.483971,14.579697 21.248174,13.71511 C 20.488386,13.016453 19.772263,12.378929 19.772263,12.378929 z"
       id="p3498"
       style="opacity:1;fill:#d8e0a8;fill-opacity:0.61000001;fill-rule:evenodd;stroke:none" />
    <path
       d="M 21.431572,10.352826 C 21.422838,10.50129 21.405372,10.649755 21.405372,10.789486 C 21.117176,10.798219 20.828981,10.815686 20.532052,10.850619 C 20.628117,11.610407 20.794048,12.370196 21.108443,12.867989 C 21.99923,14.265302 22.628021,15.898411 22.121495,15.898411 C 21.606236,15.898411 19.187138,14.12557 15.62399,16.029409 C 12.05211,17.941981 12.829365,20.361079 13.85115,19.854553 C 15.632724,16.160407 19.431668,14.640829 22.741552,18.45724 C 23.632339,19.479025 26.688961,18.570772 27.326485,18.570772 C 27.964009,18.570772 29.378788,19.330561 29.378788,19.330561 L 30.278308,18.326242 C 30.278308,18.326242 27.47495,17.051194 26.077637,17.55772 C 24.671591,18.072979 31.553356,15.383152 32.950669,15.51415 C 34.356715,15.636415 36.758346,16.16914 38.408922,17.31319 C 36.758346,15.662614 31.658155,13.49678 28.095007,15.025091 C 29.282723,14.387567 31.273894,13.164918 33.0904,12.291597 C 32.845871,12.178066 32.610074,12.064534 32.383011,11.968469 C 32.671207,11.872404 32.89827,11.802538 32.89827,11.802538 L 33.439729,12.125666 C 33.457195,12.125666 33.483395,12.1344 33.500861,12.125666 C 33.500861,12.116933 33.492128,12.116933 33.500861,12.099467 C 33.535794,11.994668 33.535794,11.732672 32.758539,11.313478 C 32.243279,11.025283 31.745487,10.763286 31.177828,10.737087 C 31.125429,10.737087 31.064297,10.763286 31.011898,10.763286 L 24.025334,16.273939 L 22.121495,11.968469 L 21.431572,10.352826 z"
       id="p3393"
       style="opacity:1;fill:#61190b;fill-opacity:0.79000005;fill-rule:evenodd;stroke:none;display:inline" />
    <path
       d="M 28.068807,3.6457244 C 27.981475,3.6544576 27.998942,3.8116553 28.173606,4.1609835 C 28.671399,5.1565689 27.876677,7.890062 26.671495,10.413958 C 26.252301,11.697739 25.457579,12.745724 25.038385,13.191117 C 24.077733,13.383248 23.754604,14.256568 23.754604,14.256568 C 23.754604,14.256568 23.283011,13.260983 22.855084,12.405129 C 22.584355,11.86367 22.470823,11.252346 22.610554,10.789486 C 22.566888,10.789486 22.540689,10.789486 22.497023,10.789486 C 22.645487,8.4489872 24.138865,5.2788337 24.138865,5.2788337 C 24.138865,5.2788337 23.807003,5.0517704 23.614873,4.8159739 C 23.370343,5.0954364 21.580036,8.0123269 21.431572,10.466358 C 21.614969,11.680273 21.876965,12.54486 22.034163,12.998987 C 22.418424,14.099371 22.357291,15.356952 22.121495,15.217221 C 18.724278,11.488142 16.244048,13.400714 14.855468,15.217221 C 13.475622,17.024994 14.28781,18.45724 14.72447,17.505321 C 15.152397,16.553401 16.095583,14.300235 18.872743,14.204169 C 21.641169,14.108104 21.064777,15.776146 21.929364,16.824131 C 22.785218,17.872115 22.863817,19.234495 24.269863,19.147163 C 26.130036,19.024898 28.514201,17.042461 30.19971,16.16914 C 30.976965,15.75868 31.265161,15.060023 32.164681,14.963958 C 32.688673,14.911559 33.020535,14.623363 33.1166,14.343901 C 34.775909,13.942173 36.251821,13.994572 37.509402,14.282768 C 37.553068,14.291501 37.6404,14.308968 37.675333,14.308968 C 38.513721,14.448699 40.915352,15.723747 41.055083,14.3701 C 40.679555,15.243421 38.015928,13.592845 35.18637,13.522979 C 35.081571,13.44438 34.976773,13.374515 34.863241,13.304649 C 33.998654,13.44438 33.064201,13.627778 33.064201,13.627778 C 33.064201,13.627778 33.029268,13.095052 32.601341,12.998987 C 32.645007,13.811175 32.295679,13.93344 32.295679,13.93344 L 32.164681,13.549179 C 32.164681,13.549179 31.815352,13.872307 31.53589,14.064438 C 31.247694,14.256568 30.287042,14.160503 29.763049,14.064438 C 30.63637,12.54486 32.042416,11.881137 33.1428,11.584208 C 33.038001,11.505609 32.941936,11.409544 32.758539,11.313478 C 32.243279,11.025283 31.745487,10.763286 31.177828,10.737087 C 30.793567,10.71962 30.383107,10.841885 29.920247,11.121348 C 29.911514,11.112615 29.902781,11.121348 29.894047,11.121348 C 29.073126,11.592941 28.383203,12.1082 28.042608,12.536127 C 26.889825,13.968373 27.178021,12.527394 27.850477,11.662807 C 27.937809,11.549275 28.086274,11.269812 28.260938,10.876818 C 28.819863,9.3485073 29.265257,7.5931331 29.352589,6.396684 C 29.457387,4.9207723 28.330804,3.6107916 28.068807,3.6457244 z"
       id="p3278"
       style="opacity:1;fill:#879166;fill-opacity:1;fill-rule:evenodd;stroke:none" />
    <path
       d="M 15.40566,11.610407 C 9.5456797,11.619141 4.0000945,18.081712 4.873415,26.675186 C 5.8340676,36.159447 17.239633,43.329408 23.291744,42.910214 C 28.828596,42.534686 38.382723,35.591788 41.116216,29.461078 C 39.352108,29.033151 36.452684,29.958871 35.107771,30.526529 C 32.496542,31.626913 31.378692,36.447642 30.138577,36.718372 C 28.907195,36.989101 26.994623,31.504648 24.112666,31.37365 C 21.221975,31.233919 18.610746,35.059063 16.960171,34.7796 C 15.309595,34.508871 16.968904,28.046299 15.728789,27.085647 C 14.497407,26.124994 13.370823,28.736222 11.449518,26.675186 C 9.5194801,24.61415 11.449518,20.920004 10.899326,19.959351 C 10.349135,18.998699 8.4452958,20.623075 8.0348352,19.662422 C 7.6505742,18.762902 7.3711116,17.80225 16.383779,11.689006 C 16.060651,11.654073 15.728789,11.610407 15.40566,11.610407 z"
       id="p3404"
       style="opacity:1;fill:#c12302;fill-opacity:0.27000002;fill-rule:evenodd;stroke:none;display:inline" />
    <path
       d="M 12.418904,22.011655 C 11.047791,22.972307 10.218136,24.622883 10.087138,25.304073"
       id="p3410"
       style="opacity:1;fill:none;fill-rule:evenodd;stroke:#ef6f47;stroke-width:4.36660242;stroke-linecap:round;stroke-linejoin:miter;stroke-miterlimit:4;stroke-dasharray:none;stroke-opacity:0.31000001" />
    <path
       d="M 21.911898,23.295436 C 20.287522,24.56175 19.24827,27.225378 19.021207,28.727489"
       id="p3412"
       style="opacity:1;fill:none;fill-rule:evenodd;stroke:#ef6f47;stroke-width:4.80326271;stroke-linecap:round;stroke-linejoin:miter;stroke-miterlimit:4;stroke-dasharray:none;stroke-opacity:0.26000001" />
    <path
       d="M 30.575237,22.640445 C 30.671303,24.142557 30.671303,26.63152 30.374374,27.827969"
       id="p3414"
       style="opacity:1;fill:none;fill-rule:evenodd;stroke:#f4a063;stroke-width:3.92994213;stroke-linecap:round;stroke-linejoin:miter;stroke-miterlimit:4;stroke-dasharray:none;stroke-opacity:0.36000001" />
    <path
       d="M 35.16017,18.955033 C 38.452588,20.946204 38.854316,23.539965 38.854316,23.539965"
       id="p3424"
       style="opacity:1;fill:none;fill-rule:evenodd;stroke:#f9c199;stroke-width:3.23128581;stroke-linecap:round;stroke-linejoin:miter;stroke-miterlimit:4;stroke-dasharray:none;stroke-opacity:0.17000002" />
    <path
       d="M 33.518327,17.767317 C 35.3785,18.081712 38.07706,22.841309 38.59232,26.570388"
       id="p3446"
       style="opacity:1;fill:none;fill-rule:evenodd;stroke:#f9c199;stroke-width:4.4452014;stroke-linecap:round;stroke-linejoin:miter;stroke-miterlimit:4;stroke-dasharray:none;stroke-opacity:0.17000002" />
    <path
       d="M 22.147694,22.395916 C 21.169576,25.766933 21.929364,28.273363 21.929364,29.57461"
       id="p3448"
       style="opacity:1;fill:none;fill-rule:evenodd;stroke:#ffa15d;stroke-width:4.88186169;stroke-linecap:round;stroke-linejoin:miter;stroke-miterlimit:4;stroke-dasharray:none;stroke-opacity:0.18000004" />
    <path
       d="M 29.570919,14.343901 C 28.418136,14.527298 25.265449,17.112327 24.243664,17.77605 C 23.33541,18.369908 23.344144,18.378641 23.396543,18.955033 C 23.623606,19.094764 23.903069,19.16463 24.269863,19.147163 C 25.143184,19.086031 26.138769,18.623171 27.108155,18.055513 C 27.483683,17.514054 27.833011,17.042461 28.287138,16.85033 C 28.557867,16.736799 29.780516,16.16914 30.907099,15.653881 C 31.265161,15.330753 31.597022,15.025091 32.164681,14.963958 C 32.400477,14.946492 32.575141,14.876626 32.732339,14.780561 C 31.78042,14.83296 30.452972,14.466165 29.763049,14.343901 C 29.701917,14.326434 29.640784,14.326434 29.570919,14.343901 z"
       id="p3450"
       style="opacity:1;fill:#3d2400;fill-opacity:0.56999972;fill-rule:evenodd;stroke:none;display:inline" />
    <path
       d="M 32.601341,12.998987 C 32.645007,13.811175 32.295679,13.93344 32.295679,13.93344 L 32.164681,13.549179 C 32.164681,13.549179 31.815352,13.872307 31.53589,14.064438 C 31.343759,14.195436 30.872166,14.186703 30.41804,14.15177 C 30.435506,14.274035 30.505372,14.387567 30.907099,14.474899 C 31.326293,14.562231 32.365544,15.025091 32.87207,14.693229 C 32.880803,14.684496 32.889537,14.675762 32.89827,14.667029 C 32.933203,14.640829 32.976869,14.597163 33.003068,14.562231 C 33.011802,14.544764 33.029268,14.544764 33.038001,14.527298 C 33.072934,14.474899 33.0904,14.413766 33.1166,14.343901 C 33.168999,14.160503 33.168999,13.93344 33.1166,13.627778 C 33.1166,13.627778 33.064201,13.627778 33.064201,13.627778 C 33.064201,13.627778 33.029268,13.095052 32.601341,12.998987 z"
       id="p3483"
       style="opacity:1;fill:#1f2c10;fill-opacity:0.61000001;fill-rule:evenodd;stroke:none" />
    <path
       d="M 26.199902,16.212806 C 28.601533,14.527298 29.527253,14.134304 30.723702,14.413766 C 31.928884,14.684496 32.592608,14.824227 32.933203,14.553497"
       id="p3453"
       style="opacity:1;fill:none;fill-rule:evenodd;stroke:#a1ae6a;stroke-width:0.26199615;stroke-linecap:round;stroke-linejoin:miter;stroke-miterlimit:4;stroke-dasharray:none;stroke-opacity:1;display:inline" />
    <path
       d="M 22.566888,16.16914 C 22.863817,16.893996 22.767752,17.330657 23.055948,17.383056 C 23.344144,17.435455 24.069,17.671252 24.069,17.671252 L 26.016504,16.22154 L 26.252301,14.955225 L 24.025334,15.252154 C 24.025334,15.252154 23.929268,16.265206 23.737138,16.265206 C 23.536274,16.265206 23.440209,16.16914 23.248078,15.73248 C 22.959883,15.880945 22.566888,16.125474 22.566888,16.16914 z"
       id="p3461"
       style="opacity:1;fill:#1f401d;fill-opacity:0.7;fill-rule:evenodd;stroke:none;display:inline" />
    <path
       d="M 27.125621,11.549275 C 26.723894,12.35273 26.287234,13.322116 26.016504,13.68891"
       id="p3491"
       style="opacity:1;fill:none;fill-rule:evenodd;stroke:#d7e9ce;stroke-width:0.60259116;stroke-linecap:round;stroke-linejoin:miter;stroke-miterlimit:4;stroke-dasharray:none;stroke-opacity:0.31000001;display:inline" />
    <path
       d="M 27.955276,8.4315207 C 27.151821,10.946684 26.54923,12.282864 25.719575,13.653977"
       id="p3488"
       style="opacity:1;fill:none;fill-rule:evenodd;stroke:#56634c;stroke-width:0.26199615;stroke-linecap:round;stroke-linejoin:miter;stroke-miterlimit:4;stroke-dasharray:none;stroke-opacity:0.54000005;display:inline" />
    <path
       d="M 23.737138,13.985839 C 23.396543,15.54035 24.610458,15.924611 24.94232,15.924611 C 25.282915,15.924611 26.453165,16.361271 26.785026,14.763094 C 27.125621,13.164918 25.047119,12.675858 23.737138,13.985839 z"
       id="p3464"
       style="opacity:1;fill:#b5c55f;fill-opacity:1;fill-rule:evenodd;stroke:none;display:inline" />
    <path
       d="M 26.357099,14.605897 C 26.357099,15.060023 25.911706,15.435551 25.370247,15.435551 C 24.828788,15.435551 24.392128,15.060023 24.392128,14.605897 C 24.392128,14.143037 24.828788,13.776242 25.370247,13.776242 C 25.911706,13.776242 26.357099,14.143037 26.357099,14.605897 L 26.357099,14.605897 z"
       id="p3477"
       style="opacity:1;fill:#f1efb5;fill-opacity:0.41000001;fill-rule:evenodd;stroke:none;marker:none;visibility:visible;display:inline;overflow:visible;enable-background:accumulate" />
    <path
       d="M 25.361514,13.25225 C 25.282915,13.25225 25.204316,13.260983 25.116984,13.27845 C 25.213049,14.221636 25.501245,14.894092 26.619095,15.26962 C 26.688961,15.129889 26.74136,14.972691 26.785026,14.780561 C 26.994623,13.776242 26.269767,13.208584 25.361514,13.25225 z"
       id="p3472"
       style="opacity:1;fill:#8f9e28;fill-opacity:0.41000001;fill-rule:evenodd;stroke:none" />
    <path
       d="M 24.662858,18.107912 C 25.946639,17.190925 27.151821,16.273939 27.483683,16.16914"
       id="p3479"
       style="opacity:1;fill:none;fill-rule:evenodd;stroke:#f39c9c;stroke-width:0.87332052px;stroke-linecap:round;stroke-linejoin:miter;stroke-opacity:0.12000002" />
    <path
       d="M 23.981668,18.710503 C 24.558059,18.160311 25.256715,17.732384 25.256715,17.732384"
       id="p3481"
       style="opacity:1;fill:none;fill-rule:evenodd;stroke:#e01b1b;stroke-width:0.87332052px;stroke-linecap:round;stroke-linejoin:miter;stroke-opacity:0.17000002" />
    <path
       d="M 21.326773,14.448699 C 21.422838,14.963958 21.457771,15.461751 21.431572,15.924611 C 21.545103,16.239006 21.702301,16.553401 21.929364,16.824131 C 21.99923,16.911463 22.077829,16.998795 22.147694,17.09486 C 22.584355,16.911463 23.047215,16.710599 23.291744,16.824131 C 23.029748,16.396204 22.636754,15.723747 22.252493,15.103689 C 22.21756,15.199755 22.173894,15.243421 22.121495,15.217221 C 21.850766,14.920292 21.580036,14.675762 21.326773,14.448699 z"
       id="p3503"
       style="opacity:1;fill:#3c6a1c;fill-opacity:0.55;fill-rule:evenodd;stroke:none;display:inline" />
    <path
       d="M 15.571591,14.3963 C 15.309595,14.649563 15.065065,14.937758 14.855468,15.217221 C 13.475622,17.024994 14.28781,18.45724 14.72447,17.505321 C 14.907868,17.086127 15.21353,16.43987 15.702589,15.811079 C 15.597791,15.409352 15.510459,14.920292 15.571591,14.3963 z"
       id="p3506"
       style="opacity:1;fill:#d9f2aa;fill-opacity:0.18000004;fill-rule:evenodd;stroke:none;display:inline" />
    <path
       d="M 15.789921,14.649563 C 16.488578,13.950906 17.265833,13.601578 18.610746,13.601578 C 19.964393,13.601578 21.134643,13.732576 21.483971,14.562231 C 21.824566,15.383152 22.173894,16.16914 22.65422,16.300138"
       id="p3509"
       style="opacity:1;fill:none;fill-rule:evenodd;stroke:#506f2b;stroke-width:0.26199615;stroke-linecap:round;stroke-linejoin:miter;stroke-miterlimit:4;stroke-dasharray:none;stroke-opacity:0.43000004;display:inline" />
    <path
       d="M 22.173894,11.785071 C 22.785218,12.824323 23.169479,14.300235 23.431476,15.863478"
       id="p3512"
       style="opacity:1;fill:none;fill-rule:evenodd;stroke:#506f2b;stroke-width:0.26199615;stroke-linecap:round;stroke-linejoin:miter;stroke-miterlimit:4;stroke-dasharray:none;stroke-opacity:0.43000004;display:inline" />
    <path
       d="M 25.300381,26.430656 C 25.562378,28.072499 24.872454,29.417412 23.763337,29.417412 C 22.645487,29.417412 21.527637,28.072499 21.265641,26.430656 C 21.003645,24.780081 21.693568,23.4439 22.802685,23.4439 C 23.920535,23.4439 25.038385,24.780081 25.300381,26.430656 L 25.300381,26.430656 z"
       id="p3344"
       style="opacity:1;fill:#ffffff;fill-opacity:0.47000002;fill-rule:evenodd;stroke:none;marker:none;visibility:visible;display:inline;overflow:visible;enable-background:accumulate" />
    <path
       d="M 31.160362,25.635935 C 30.880899,26.989581 29.824182,28.081232 28.802397,28.081232 C 27.771879,28.081232 27.169287,26.989581 27.44875,25.635935 C 27.728212,24.282288 28.793663,23.181904 29.815448,23.181904 C 30.837233,23.181904 31.439825,24.282288 31.160362,25.635935 L 31.160362,25.635935 z"
       id="p3346"
       style="opacity:1;fill:#ffffff;fill-opacity:0.47000002;fill-rule:evenodd;stroke:none;marker:none;visibility:visible;display:inline;overflow:visible;enable-background:accumulate" />
    <path
       d="M 17.396831,19.365493 C 16.436178,19.365493 15.423127,20.404745 15.16113,21.679793 C 14.890401,22.954841 15.449326,23.976626 16.409979,23.976626 C 17.248366,22.282384 17.990689,21.312998 18.706812,20.727873 C 18.602013,19.924419 18.104221,19.365493 17.396831,19.365493 z"
       id="p3348"
       style="opacity:1;fill:#ffffff;fill-opacity:0.27999998;fill-rule:evenodd;stroke:none;marker:none;visibility:visible;display:inline;overflow:visible;enable-background:accumulate" />
    <path
       d="M 33.474661,19.033632 C 33.212665,19.068564 32.959402,19.199563 32.784738,19.417893 C 33.666792,20.658008 34.47898,21.83699 35.055371,22.858775 C 35.264968,22.78891 35.465832,22.675378 35.59683,22.474514 C 36.068423,21.775858 35.81516,20.535743 35.029172,19.714822 C 34.531379,19.199563 33.954988,18.963766 33.474661,19.033632 z"
       id="p3350"
       style="opacity:1;fill:#ffffff;fill-opacity:0.27999998;fill-rule:evenodd;stroke:none;marker:none;visibility:visible;display:inline;overflow:visible;enable-background:accumulate" />
    <path
       d="M 24.173798,25.959063 C 24.348462,26.727585 24.060266,27.347643 23.527541,27.347643 C 22.994815,27.347643 22.418424,26.727585 22.24376,25.959063 C 22.069096,25.181808 22.357291,24.56175 22.890017,24.56175 C 23.422742,24.56175 23.999134,25.181808 24.173798,25.959063 L 24.173798,25.959063 z"
       id="p3358"
       style="opacity:1;fill:#ffffff;fill-opacity:0.62999998;fill-rule:evenodd;stroke:none;marker:none;visibility:visible;display:inline;overflow:visible;enable-background:accumulate" />
    <path
       d="M 29.902781,26.177393 C 29.49232,26.841117 28.854796,27.085647 28.479268,26.710119 C 28.095007,26.343324 28.121207,25.496203 28.531667,24.823747 C 28.942128,24.15129 29.579652,23.915493 29.95518,24.282288 C 30.330708,24.657816 30.313241,25.504937 29.902781,26.177393 L 29.902781,26.177393 z"
       id="p3360"
       style="opacity:1;fill:#ffffff;fill-opacity:0.62999998;fill-rule:evenodd;stroke:none;marker:none;visibility:visible;display:inline;overflow:visible;enable-background:accumulate" />
    <path
       d="M 34.810842,20.334879 C 34.994239,20.858871 34.837041,21.304265 34.470247,21.347931 C 34.103452,21.391597 33.658059,21.007336 33.483395,20.492077 C 33.30873,19.976818 33.457195,19.522691 33.82399,19.479025 C 34.199517,19.435359 34.636178,19.81962 34.810842,20.334879 L 34.810842,20.334879 z"
       id="p3362"
       style="opacity:1;fill:#ffffff;fill-opacity:0.4;fill-rule:evenodd;stroke:none;marker:none;visibility:visible;display:inline;overflow:visible;enable-background:accumulate" />
    <path
       d="M 17.2571,22.046587 C 16.864105,22.579313 16.313914,22.736511 16.025718,22.395916 C 15.737522,22.055321 15.824854,21.347931 16.217848,20.815205 C 16.610843,20.28248 17.161034,20.125282 17.44923,20.465877 C 17.737426,20.806472 17.650094,21.513862 17.2571,22.046587 L 17.2571,22.046587 z"
       id="p3366"
       style="opacity:1;fill:#ffffff;fill-opacity:0.45;fill-rule:evenodd;stroke:none;marker:none;visibility:visible;display:inline;overflow:visible;enable-background:accumulate" />
    <path
       d="M 22.086562,17.627586 C 22.863817,19.033632 24.269863,19.374227 26.400765,18.500906"
       id="p3459"
       style="opacity:1;fill:none;fill-rule:evenodd;stroke:#363a20;stroke-width:0.60259116;stroke-linecap:round;stroke-linejoin:miter;stroke-miterlimit:4;stroke-dasharray:none;stroke-opacity:1" />
    <path
       d="M 23.737138,13.985839 C 23.396543,15.54035 24.610458,15.924611 24.94232,15.924611 C 25.282915,15.924611 26.453165,16.361271 26.785026,14.763094 C 27.125621,13.164918 25.047119,12.675858 23.737138,13.985839 z"
       id="p3469"
       style="opacity:1;fill:none;fill-opacity:1;fill-rule:evenodd;stroke:#606c2e;stroke-width:0.26199615;stroke-linecap:butt;stroke-linejoin:miter;stroke-miterlimit:4;stroke-dasharray:none;stroke-opacity:1;display:inline" />
    <path
       d="M 14.26161,17.741117 C 14.584739,18.055513 15.073798,16.754265 15.527925,16.055609 C 15.982052,15.348219 17.248366,14.12557 19.152205,14.230369 C 21.047311,14.335167 21.152109,15.138622 21.326773,15.741213 C 21.501437,16.335071 22.095295,16.998795 22.278693,17.391789 C 22.453357,17.77605 22.802685,18.195244 23.012282,18.369908"
       id="p3521"
       style="opacity:1;fill:none;fill-rule:evenodd;stroke:#3c4a36;stroke-width:0.17466411;stroke-linecap:butt;stroke-linejoin:miter;stroke-miterlimit:4;stroke-dasharray:none;stroke-opacity:1;display:inline" />
  </g>
</svg>
